<?xml version="1.0" encoding="UTF-8" standalone="no"?>
<!DOCTYPE svg PUBLIC "-//W3C//DTD SVG 1.1//EN"
 "http://www.w3.org/Graphics/SVG/1.1/DTD/svg11.dtd">
<!-- Generated by graphviz version 3.0.0 (20220226.1711)
 -->
<!-- Title: CloudOnce.Internal.CurrencyValue Pages: 1 -->
<svg width="216pt" height="151pt"
 viewBox="0.00 0.00 215.50 151.00" xmlns="http://www.w3.org/2000/svg" xmlns:xlink="http://www.w3.org/1999/xlink">
<g id="graph0" class="graph" transform="scale(1 1) rotate(0) translate(4 147)">
<title>CloudOnce.Internal.CurrencyValue</title>
<!-- Node1 -->
<g id="node1" class="node">
<title>Node1</title>
<g id="a_node1"><a xlink:title="Data&#45;class to store currency value.">
<polygon fill="#bfbfbf" stroke="black" points="30,-0.5 30,-30.5 171,-30.5 171,-0.5 30,-0.5"/>
<text text-anchor="start" x="38" y="-18.5" font-family="Helvetica,sans-Serif" font-size="10.00">CloudOnce.Internal.Currency</text>
<text text-anchor="middle" x="100.5" y="-7.5" font-family="Helvetica,sans-Serif" font-size="10.00">Value</text>
</a>
</g>
</g>
<!-- Node2 -->
<g id="node2" class="node">
<title>Node2</title>
<g id="a_node2"><a xlink:href="interface_cloud_once_1_1_internal_1_1_i_json_convertible.html" target="_top" xlink:title=" ">
<polygon fill="none" stroke="#bfbfbf" points="57.5,-67.5 57.5,-86.5 143.5,-86.5 143.5,-67.5 57.5,-67.5"/>
<text text-anchor="middle" x="100.5" y="-74.5" font-family="Helvetica,sans-Serif" font-size="10.00">IJsonConvertible</text>
</a>
</g>
</g>
<!-- Node2&#45;&gt;Node1 -->
<g id="edge1" class="edge">
<title>Node2&#45;&gt;Node1</title>
<path fill="none" stroke="midnightblue" d="M100.5,-57.23C100.5,-48.59 100.5,-38.5 100.5,-30.52"/>
<polygon fill="midnightblue" stroke="midnightblue" points="97,-57.48 100.5,-67.48 104,-57.48 97,-57.48"/>
</g>
<!-- Node3 -->
<g id="node3" class="node">
<title>Node3</title>
<g id="a_node3"><a xlink:href="interface_cloud_once_1_1_internal_1_1_i_json_serializable.html" target="_top" xlink:title=" ">
<polygon fill="none" stroke="#bfbfbf" points="0,-123.5 0,-142.5 89,-142.5 89,-123.5 0,-123.5"/>
<text text-anchor="middle" x="44.5" y="-130.5" font-family="Helvetica,sans-Serif" font-size="10.00">IJsonSerializable</text>
</a>
</g>
</g>
<!-- Node3&#45;&gt;Node2 -->
<g id="edge2" class="edge">
<title>Node3&#45;&gt;Node2</title>
<path fill="none" stroke="midnightblue" d="M60.83,-116.25C70.76,-106.67 83.09,-94.79 91.34,-86.83"/>
<polygon fill="midnightblue" stroke="midnightblue" points="58.27,-113.86 53.5,-123.32 63.13,-118.9 58.27,-113.86"/>
</g>
<!-- Node4 -->
<g id="node4" class="node">
<title>Node4</title>
<g id="a_node4"><a xlink:href="interface_cloud_once_1_1_internal_1_1_i_json_deserializable.html" target="_top" xlink:title=" ">
<polygon fill="none" stroke="#bfbfbf" points="107.5,-123.5 107.5,-142.5 207.5,-142.5 207.5,-123.5 107.5,-123.5"/>
<text text-anchor="middle" x="157.5" y="-130.5" font-family="Helvetica,sans-Serif" font-size="10.00">IJsonDeserializable</text>
</a>
</g>
</g>
<!-- Node4&#45;&gt;Node2 -->
<g id="edge3" class="edge">
<title>Node4&#45;&gt;Node2</title>
<path fill="none" stroke="midnightblue" d="M140.88,-116.25C130.77,-106.67 118.22,-94.79 109.82,-86.83"/>
<polygon fill="midnightblue" stroke="midnightblue" points="138.68,-118.99 148.34,-123.32 143.49,-113.91 138.68,-118.99"/>
</g>
</g>
</svg>
