<?xml version="1.0" encoding="UTF-8" standalone="no"?>
<!DOCTYPE svg PUBLIC "-//W3C//DTD SVG 1.1//EN"
 "http://www.w3.org/Graphics/SVG/1.1/DTD/svg11.dtd">
<!-- Generated by graphviz version 3.0.0 (20220226.1711)
 -->
<!-- Title: CloudOnce.Internal.SyncableItem Pages: 1 -->
<svg width="315pt" height="140pt"
 viewBox="0.00 0.00 315.00 140.00" xmlns="http://www.w3.org/2000/svg" xmlns:xlink="http://www.w3.org/1999/xlink">
<g id="graph0" class="graph" transform="scale(1 1) rotate(0) translate(4 136)">
<title>CloudOnce.Internal.SyncableItem</title>
<!-- Node1 -->
<g id="node1" class="node">
<title>Node1</title>
<g id="a_node1"><a xlink:title="Data&#45;class for regular cloud preferences. Takes care of serialization and deserialization of the data...">
<polygon fill="#bfbfbf" stroke="black" points="54.5,-0.5 54.5,-19.5 215.5,-19.5 215.5,-0.5 54.5,-0.5"/>
<text text-anchor="middle" x="135" y="-7.5" font-family="Helvetica,sans-Serif" font-size="10.00">CloudOnce.Internal.SyncableItem</text>
</a>
</g>
</g>
<!-- Node2 -->
<g id="node2" class="node">
<title>Node2</title>
<g id="a_node2"><a xlink:title=" ">
<polygon fill="none" stroke="#bfbfbf" points="0,-56.5 0,-75.5 140,-75.5 140,-56.5 0,-56.5"/>
<text text-anchor="middle" x="70" y="-63.5" font-family="Helvetica,sans-Serif" font-size="10.00">IEquatable&lt; SyncableItem &gt;</text>
</a>
</g>
</g>
<!-- Node2&#45;&gt;Node1 -->
<g id="edge1" class="edge">
<title>Node2&#45;&gt;Node1</title>
<path fill="none" stroke="midnightblue" d="M88.27,-49.82C99.92,-40.15 114.6,-27.95 124.37,-19.83"/>
<polygon fill="midnightblue" stroke="midnightblue" points="85.9,-47.24 80.44,-56.32 90.37,-52.63 85.9,-47.24"/>
</g>
<!-- Node3 -->
<g id="node3" class="node">
<title>Node3</title>
<g id="a_node3"><a xlink:href="interface_cloud_once_1_1_internal_1_1_i_json_convertible.html" target="_top" xlink:title=" ">
<polygon fill="none" stroke="#bfbfbf" points="158,-56.5 158,-75.5 244,-75.5 244,-56.5 158,-56.5"/>
<text text-anchor="middle" x="201" y="-63.5" font-family="Helvetica,sans-Serif" font-size="10.00">IJsonConvertible</text>
</a>
</g>
</g>
<!-- Node3&#45;&gt;Node1 -->
<g id="edge2" class="edge">
<title>Node3&#45;&gt;Node1</title>
<path fill="none" stroke="midnightblue" d="M182.45,-49.82C170.62,-40.15 155.71,-27.95 145.8,-19.83"/>
<polygon fill="midnightblue" stroke="midnightblue" points="180.44,-52.7 190.4,-56.32 184.87,-47.28 180.44,-52.7"/>
</g>
<!-- Node4 -->
<g id="node4" class="node">
<title>Node4</title>
<g id="a_node4"><a xlink:href="interface_cloud_once_1_1_internal_1_1_i_json_serializable.html" target="_top" xlink:title=" ">
<polygon fill="none" stroke="#bfbfbf" points="99.5,-112.5 99.5,-131.5 188.5,-131.5 188.5,-112.5 99.5,-112.5"/>
<text text-anchor="middle" x="144" y="-119.5" font-family="Helvetica,sans-Serif" font-size="10.00">IJsonSerializable</text>
</a>
</g>
</g>
<!-- Node4&#45;&gt;Node3 -->
<g id="edge3" class="edge">
<title>Node4&#45;&gt;Node3</title>
<path fill="none" stroke="midnightblue" d="M160.62,-105.25C170.73,-95.67 183.28,-83.79 191.68,-75.83"/>
<polygon fill="midnightblue" stroke="midnightblue" points="158.01,-102.91 153.16,-112.32 162.82,-107.99 158.01,-102.91"/>
</g>
<!-- Node5 -->
<g id="node5" class="node">
<title>Node5</title>
<g id="a_node5"><a xlink:href="interface_cloud_once_1_1_internal_1_1_i_json_deserializable.html" target="_top" xlink:title=" ">
<polygon fill="none" stroke="#bfbfbf" points="207,-112.5 207,-131.5 307,-131.5 307,-112.5 207,-112.5"/>
<text text-anchor="middle" x="257" y="-119.5" font-family="Helvetica,sans-Serif" font-size="10.00">IJsonDeserializable</text>
</a>
</g>
</g>
<!-- Node5&#45;&gt;Node3 -->
<g id="edge4" class="edge">
<title>Node5&#45;&gt;Node3</title>
<path fill="none" stroke="midnightblue" d="M240.67,-105.25C230.74,-95.67 218.41,-83.79 210.16,-75.83"/>
<polygon fill="midnightblue" stroke="midnightblue" points="238.37,-107.9 248,-112.32 243.23,-102.86 238.37,-107.9"/>
</g>
</g>
</svg>
