<?xml version="1.0" encoding="UTF-8" standalone="no"?>
<!DOCTYPE svg PUBLIC "-//W3C//DTD SVG 1.1//EN"
 "http://www.w3.org/Graphics/SVG/1.1/DTD/svg11.dtd">
<!-- Generated by graphviz version 3.0.0 (20220226.1711)
 -->
<!-- Title: CloudOnce.Internal.SyncableItemMetaData Pages: 1 -->
<svg width="307pt" height="162pt"
 viewBox="0.00 0.00 306.50 162.00" xmlns="http://www.w3.org/2000/svg" xmlns:xlink="http://www.w3.org/1999/xlink">
<g id="graph0" class="graph" transform="scale(1 1) rotate(0) translate(4 158)">
<title>CloudOnce.Internal.SyncableItemMetaData</title>
<!-- Node1 -->
<g id="node1" class="node">
<title>Node1</title>
<g id="a_node1"><a xlink:title="Holds data about a SyncableItem.">
<polygon fill="#bfbfbf" stroke="black" points="57,-0.5 57,-30.5 200,-30.5 200,-0.5 57,-0.5"/>
<text text-anchor="start" x="65" y="-18.5" font-family="Helvetica,sans-Serif" font-size="10.00">CloudOnce.Internal.Syncable</text>
<text text-anchor="middle" x="128.5" y="-7.5" font-family="Helvetica,sans-Serif" font-size="10.00">ItemMetaData</text>
</a>
</g>
</g>
<!-- Node2 -->
<g id="node2" class="node">
<title>Node2</title>
<g id="a_node2"><a xlink:title=" ">
<polygon fill="none" stroke="#bfbfbf" points="0,-67.5 0,-97.5 131,-97.5 131,-67.5 0,-67.5"/>
<text text-anchor="start" x="8" y="-85.5" font-family="Helvetica,sans-Serif" font-size="10.00">IEquatable&lt; SyncableItem</text>
<text text-anchor="middle" x="65.5" y="-74.5" font-family="Helvetica,sans-Serif" font-size="10.00">MetaData &gt;</text>
</a>
</g>
</g>
<!-- Node2&#45;&gt;Node1 -->
<g id="edge1" class="edge">
<title>Node2&#45;&gt;Node1</title>
<path fill="none" stroke="midnightblue" d="M86.31,-60.02C95.7,-50.34 106.52,-39.17 114.86,-30.58"/>
<polygon fill="midnightblue" stroke="midnightblue" points="83.62,-57.78 79.17,-67.4 88.64,-62.65 83.62,-57.78"/>
</g>
<!-- Node3 -->
<g id="node3" class="node">
<title>Node3</title>
<g id="a_node3"><a xlink:href="interface_cloud_once_1_1_internal_1_1_i_json_convertible.html" target="_top" xlink:title=" ">
<polygon fill="none" stroke="#bfbfbf" points="149.5,-73 149.5,-92 235.5,-92 235.5,-73 149.5,-73"/>
<text text-anchor="middle" x="192.5" y="-80" font-family="Helvetica,sans-Serif" font-size="10.00">IJsonConvertible</text>
</a>
</g>
</g>
<!-- Node3&#45;&gt;Node1 -->
<g id="edge2" class="edge">
<title>Node3&#45;&gt;Node1</title>
<path fill="none" stroke="midnightblue" d="M176.55,-65.3C166.05,-54.63 152.43,-40.8 142.37,-30.59"/>
<polygon fill="midnightblue" stroke="midnightblue" points="174.36,-68.06 183.87,-72.73 179.35,-63.15 174.36,-68.06"/>
</g>
<!-- Node4 -->
<g id="node4" class="node">
<title>Node4</title>
<g id="a_node4"><a xlink:href="interface_cloud_once_1_1_internal_1_1_i_json_serializable.html" target="_top" xlink:title=" ">
<polygon fill="none" stroke="#bfbfbf" points="91,-134.5 91,-153.5 180,-153.5 180,-134.5 91,-134.5"/>
<text text-anchor="middle" x="135.5" y="-141.5" font-family="Helvetica,sans-Serif" font-size="10.00">IJsonSerializable</text>
</a>
</g>
</g>
<!-- Node4&#45;&gt;Node3 -->
<g id="edge3" class="edge">
<title>Node4&#45;&gt;Node3</title>
<path fill="none" stroke="midnightblue" d="M150.83,-127C161.62,-115.74 175.64,-101.1 184.35,-92.01"/>
<polygon fill="midnightblue" stroke="midnightblue" points="148.06,-124.83 143.67,-134.48 153.11,-129.68 148.06,-124.83"/>
</g>
<!-- Node5 -->
<g id="node5" class="node">
<title>Node5</title>
<g id="a_node5"><a xlink:href="interface_cloud_once_1_1_internal_1_1_i_json_deserializable.html" target="_top" xlink:title=" ">
<polygon fill="none" stroke="#bfbfbf" points="198.5,-134.5 198.5,-153.5 298.5,-153.5 298.5,-134.5 198.5,-134.5"/>
<text text-anchor="middle" x="248.5" y="-141.5" font-family="Helvetica,sans-Serif" font-size="10.00">IJsonDeserializable</text>
</a>
</g>
</g>
<!-- Node5&#45;&gt;Node3 -->
<g id="edge4" class="edge">
<title>Node5&#45;&gt;Node3</title>
<path fill="none" stroke="midnightblue" d="M233.44,-127C222.84,-115.74 209.07,-101.1 200.51,-92.01"/>
<polygon fill="midnightblue" stroke="midnightblue" points="231.07,-129.59 240.48,-134.48 236.17,-124.79 231.07,-129.59"/>
</g>
</g>
</svg>
