<?xml version="1.0" encoding="UTF-8" standalone="no"?>
<!DOCTYPE svg PUBLIC "-//W3C//DTD SVG 1.1//EN"
 "http://www.w3.org/Graphics/SVG/1.1/DTD/svg11.dtd">
<!-- Generated by graphviz version 3.0.0 (20220226.1711)
 -->
<!-- Title: CloudOnce.Internal.Editor.Data.CloudConfig Pages: 1 -->
<svg width="204pt" height="95pt"
 viewBox="0.00 0.00 204.00 95.00" xmlns="http://www.w3.org/2000/svg" xmlns:xlink="http://www.w3.org/1999/xlink">
<g id="graph0" class="graph" transform="scale(1 1) rotate(0) translate(4 91)">
<title>CloudOnce.Internal.Editor.Data.CloudConfig</title>
<!-- Node1 -->
<g id="node1" class="node">
<title>Node1</title>
<g id="a_node1"><a xlink:title="Data&#45;class for storing CloudOnce configuration.">
<polygon fill="#bfbfbf" stroke="black" points="32,-0.5 32,-30.5 163,-30.5 163,-0.5 32,-0.5"/>
<text text-anchor="start" x="40" y="-18.5" font-family="Helvetica,sans-Serif" font-size="10.00">CloudOnce.Internal.Editor.</text>
<text text-anchor="middle" x="97.5" y="-7.5" font-family="Helvetica,sans-Serif" font-size="10.00">Data.CloudConfig</text>
</a>
</g>
</g>
<!-- Node2 -->
<g id="node2" class="node">
<title>Node2</title>
<g id="a_node2"><a xlink:title=" ">
<polygon fill="none" stroke="#bfbfbf" points="0,-67.5 0,-86.5 89,-86.5 89,-67.5 0,-67.5"/>
<text text-anchor="middle" x="44.5" y="-74.5" font-family="Helvetica,sans-Serif" font-size="10.00">ScriptableObject</text>
</a>
</g>
</g>
<!-- Node2&#45;&gt;Node1 -->
<g id="edge1" class="edge">
<title>Node2&#45;&gt;Node1</title>
<path fill="none" stroke="midnightblue" d="M58.92,-59.81C67.08,-50.65 77.19,-39.3 85.01,-30.52"/>
<polygon fill="midnightblue" stroke="midnightblue" points="56.13,-57.68 52.09,-67.48 61.36,-62.34 56.13,-57.68"/>
</g>
<!-- Node3 -->
<g id="node3" class="node">
<title>Node3</title>
<g id="a_node3"><a xlink:href="interface_cloud_once_1_1_internal_1_1_i_json_serializable.html" target="_top" xlink:title=" ">
<polygon fill="none" stroke="#bfbfbf" points="107,-67.5 107,-86.5 196,-86.5 196,-67.5 107,-67.5"/>
<text text-anchor="middle" x="151.5" y="-74.5" font-family="Helvetica,sans-Serif" font-size="10.00">IJsonSerializable</text>
</a>
</g>
</g>
<!-- Node3&#45;&gt;Node1 -->
<g id="edge2" class="edge">
<title>Node3&#45;&gt;Node1</title>
<path fill="none" stroke="midnightblue" d="M136.81,-59.81C128.49,-50.65 118.2,-39.3 110.23,-30.52"/>
<polygon fill="midnightblue" stroke="midnightblue" points="134.45,-62.42 143.76,-67.48 139.63,-57.72 134.45,-62.42"/>
</g>
</g>
</svg>
