<?xml version="1.0" encoding="UTF-8" standalone="no"?>
<!DOCTYPE svg PUBLIC "-//W3C//DTD SVG 1.1//EN"
 "http://www.w3.org/Graphics/SVG/1.1/DTD/svg11.dtd">
<!-- Generated by graphviz version 3.0.0 (20220226.1711)
 -->
<!-- Title: CloudOnce.Internal.CloudProviderBase&lt; T &gt; Pages: 1 -->
<svg width="188pt" height="95pt"
 viewBox="0.00 0.00 187.50 95.00" xmlns="http://www.w3.org/2000/svg" xmlns:xlink="http://www.w3.org/1999/xlink">
<g id="graph0" class="graph" transform="scale(1 1) rotate(0) translate(4 91)">
<title>CloudOnce.Internal.CloudProviderBase&lt; T &gt;</title>
<!-- Node1 -->
<g id="node1" class="node">
<title>Node1</title>
<g id="a_node1"><a xlink:title="Base class for the Cloud service providers.">
<polygon fill="#bfbfbf" stroke="black" points="27,-0.5 27,-30.5 154,-30.5 154,-0.5 27,-0.5"/>
<text text-anchor="start" x="35" y="-18.5" font-family="Helvetica,sans-Serif" font-size="10.00">CloudOnce.Internal.Cloud</text>
<text text-anchor="middle" x="90.5" y="-7.5" font-family="Helvetica,sans-Serif" font-size="10.00">ProviderBase&lt; T &gt;</text>
</a>
</g>
</g>
<!-- Node2 -->
<g id="node2" class="node">
<title>Node2</title>
<g id="a_node2"><a xlink:title=" ">
<polygon fill="none" stroke="#bfbfbf" points="0,-67.5 0,-86.5 83,-86.5 83,-67.5 0,-67.5"/>
<text text-anchor="middle" x="41.5" y="-74.5" font-family="Helvetica,sans-Serif" font-size="10.00">MonoBehaviour</text>
</a>
</g>
</g>
<!-- Node2&#45;&gt;Node1 -->
<g id="edge1" class="edge">
<title>Node2&#45;&gt;Node1</title>
<path fill="none" stroke="midnightblue" d="M55.06,-59.53C62.57,-50.42 71.79,-39.21 78.95,-30.52"/>
<polygon fill="midnightblue" stroke="midnightblue" points="52.18,-57.53 48.52,-67.48 57.58,-61.98 52.18,-57.53"/>
</g>
<!-- Node3 -->
<g id="node3" class="node">
<title>Node3</title>
<g id="a_node3"><a xlink:href="interface_cloud_once_1_1_internal_1_1_providers_1_1_i_cloud_provider.html" target="_top" xlink:title="Interface for accessing platform&#45;agnostic cloud functionality.">
<polygon fill="none" stroke="black" points="101.5,-67.5 101.5,-86.5 179.5,-86.5 179.5,-67.5 101.5,-67.5"/>
<text text-anchor="middle" x="140.5" y="-74.5" font-family="Helvetica,sans-Serif" font-size="10.00">ICloudProvider</text>
</a>
</g>
</g>
<!-- Node3&#45;&gt;Node1 -->
<g id="edge2" class="edge">
<title>Node3&#45;&gt;Node1</title>
<path fill="none" stroke="midnightblue" d="M126.9,-59.81C119.2,-50.65 109.66,-39.3 102.28,-30.52"/>
<polygon fill="midnightblue" stroke="midnightblue" points="124.22,-62.07 133.34,-67.48 129.58,-57.57 124.22,-62.07"/>
</g>
</g>
</svg>
