<?xml version="1.0" encoding="UTF-8" standalone="no"?>
<!DOCTYPE svg PUBLIC "-//W3C//DTD SVG 1.1//EN"
 "http://www.w3.org/Graphics/SVG/1.1/DTD/svg11.dtd">
<!-- Generated by graphviz version 3.0.0 (20220226.1711)
 -->
<!-- Title: CloudOnce.CloudPrefs.CloudCurrencyInt Pages: 1 -->
<svg width="151pt" height="151pt"
 viewBox="0.00 0.00 151.00 151.00" xmlns="http://www.w3.org/2000/svg" xmlns:xlink="http://www.w3.org/1999/xlink">
<g id="graph0" class="graph" transform="scale(1 1) rotate(0) translate(4 147)">
<title>CloudOnce.CloudPrefs.CloudCurrencyInt</title>
<!-- Node1 -->
<g id="node1" class="node">
<title>Node1</title>
<g id="a_node1"><a xlink:title="Used to create virtual currencies that gets stored in the cloud. This type uses int values....">
<polygon fill="#bfbfbf" stroke="black" points="0,-0.5 0,-30.5 143,-30.5 143,-0.5 0,-0.5"/>
<text text-anchor="start" x="8" y="-18.5" font-family="Helvetica,sans-Serif" font-size="10.00">CloudOnce.CloudPrefs.Cloud</text>
<text text-anchor="middle" x="71.5" y="-7.5" font-family="Helvetica,sans-Serif" font-size="10.00">CurrencyInt</text>
</a>
</g>
</g>
<!-- Node2 -->
<g id="node2" class="node">
<title>Node2</title>
<g id="a_node2"><a xlink:href="class_cloud_once_1_1_internal_1_1_persistent_currency.html" target="_top" xlink:title="A currency that is stored in the cloud.">
<polygon fill="none" stroke="black" points="21.5,-67.5 21.5,-86.5 121.5,-86.5 121.5,-67.5 21.5,-67.5"/>
<text text-anchor="middle" x="71.5" y="-74.5" font-family="Helvetica,sans-Serif" font-size="10.00">PersistentCurrency</text>
</a>
</g>
</g>
<!-- Node2&#45;&gt;Node1 -->
<g id="edge1" class="edge">
<title>Node2&#45;&gt;Node1</title>
<path fill="none" stroke="midnightblue" d="M71.5,-57.23C71.5,-48.59 71.5,-38.5 71.5,-30.52"/>
<polygon fill="midnightblue" stroke="midnightblue" points="68,-57.48 71.5,-67.48 75,-57.48 68,-57.48"/>
</g>
<!-- Node3 -->
<g id="node3" class="node">
<title>Node3</title>
<g id="a_node3"><a xlink:href="interface_cloud_once_1_1_internal_1_1_i_persistent.html" target="_top" xlink:title="Used by cloud preferences to facilitate loading and saving of data.">
<polygon fill="none" stroke="black" points="40,-123.5 40,-142.5 103,-142.5 103,-123.5 40,-123.5"/>
<text text-anchor="middle" x="71.5" y="-130.5" font-family="Helvetica,sans-Serif" font-size="10.00">IPersistent</text>
</a>
</g>
</g>
<!-- Node3&#45;&gt;Node2 -->
<g id="edge2" class="edge">
<title>Node3&#45;&gt;Node2</title>
<path fill="none" stroke="midnightblue" d="M71.5,-112.8C71.5,-103.91 71.5,-93.78 71.5,-86.75"/>
<polygon fill="midnightblue" stroke="midnightblue" points="68,-113.08 71.5,-123.08 75,-113.08 68,-113.08"/>
</g>
</g>
</svg>
