<?xml version="1.0" encoding="UTF-8" standalone="no"?>
<!DOCTYPE svg PUBLIC "-//W3C//DTD SVG 1.1//EN"
 "http://www.w3.org/Graphics/SVG/1.1/DTD/svg11.dtd">
<!-- Generated by graphviz version 3.0.0 (20220226.1711)
 -->
<!-- Title: Graphical Class Hierarchy Pages: 1 -->
<svg width="367pt" height="431pt"
 viewBox="0.00 0.00 367.00 431.00" xmlns="http://www.w3.org/2000/svg" xmlns:xlink="http://www.w3.org/1999/xlink">
<g id="graph0" class="graph" transform="scale(1 1) rotate(0) translate(4 427)">
<title>Graphical Class Hierarchy</title>
<!-- Node0 -->
<g id="node1" class="node">
<title>Node0</title>
<g id="a_node1"><a xlink:href="interface_cloud_once_1_1_internal_1_1_providers_1_1_i_cloud_provider.html" target="_top" xlink:title="Interface for accessing platform&#45;agnostic cloud functionality.">
<polygon fill="none" stroke="black" points="0,-392.5 0,-422.5 145,-422.5 145,-392.5 0,-392.5"/>
<text text-anchor="start" x="8" y="-410.5" font-family="Helvetica,sans-Serif" font-size="10.00">CloudOnce.Internal.Providers.</text>
<text text-anchor="middle" x="72.5" y="-399.5" font-family="Helvetica,sans-Serif" font-size="10.00">ICloudProvider</text>
</a>
</g>
</g>
<!-- Node1 -->
<g id="node2" class="node">
<title>Node1</title>
<g id="a_node2"><a xlink:href="class_cloud_once_1_1_internal_1_1_cloud_provider_base.html" target="_top" xlink:title="Base class for the Cloud service providers.">
<polygon fill="none" stroke="black" points="206.5,-392.5 206.5,-422.5 333.5,-422.5 333.5,-392.5 206.5,-392.5"/>
<text text-anchor="start" x="214.5" y="-410.5" font-family="Helvetica,sans-Serif" font-size="10.00">CloudOnce.Internal.Cloud</text>
<text text-anchor="middle" x="270" y="-399.5" font-family="Helvetica,sans-Serif" font-size="10.00">ProviderBase&lt; T &gt;</text>
</a>
</g>
</g>
<!-- Node0&#45;&gt;Node1 -->
<g id="edge1" class="edge">
<title>Node0&#45;&gt;Node1</title>
<path fill="none" stroke="midnightblue" d="M155.65,-407.5C172.61,-407.5 190.22,-407.5 206.35,-407.5"/>
<polygon fill="midnightblue" stroke="midnightblue" points="155.19,-404 145.19,-407.5 155.19,-411 155.19,-404"/>
</g>
<!-- Node2 -->
<g id="node3" class="node">
<title>Node2</title>
<g id="a_node3"><a xlink:title=" ">
<polygon fill="none" stroke="#bfbfbf" points="31,-202 31,-221 114,-221 114,-202 31,-202"/>
<text text-anchor="middle" x="72.5" y="-209" font-family="Helvetica,sans-Serif" font-size="10.00">MonoBehaviour</text>
</a>
</g>
</g>
<!-- Node2&#45;&gt;Node1 -->
<g id="edge2" class="edge">
<title>Node2&#45;&gt;Node1</title>
<path fill="none" stroke="midnightblue" d="M80.1,-230.74C93.36,-266.48 126.7,-343.14 181,-383.5 188.5,-389.07 197.21,-393.35 206.19,-396.64"/>
<polygon fill="midnightblue" stroke="midnightblue" points="83.29,-229.28 76.63,-221.05 76.7,-231.64 83.29,-229.28"/>
</g>
<!-- Node3 -->
<g id="node4" class="node">
<title>Node3</title>
<g id="a_node4"><a xlink:href="class_cloud_once_1_1_internal_1_1i_cloud_listener.html" target="_top" xlink:title="Used to listen for messages from the CloudOnceSave iOS plug&#45;in.">
<polygon fill="none" stroke="black" points="205.5,-343.5 205.5,-373.5 334.5,-373.5 334.5,-343.5 205.5,-343.5"/>
<text text-anchor="start" x="213.5" y="-361.5" font-family="Helvetica,sans-Serif" font-size="10.00">CloudOnce.Internal.iCloud</text>
<text text-anchor="middle" x="270" y="-350.5" font-family="Helvetica,sans-Serif" font-size="10.00">Listener</text>
</a>
</g>
</g>
<!-- Node2&#45;&gt;Node3 -->
<g id="edge3" class="edge">
<title>Node2&#45;&gt;Node3</title>
<path fill="none" stroke="midnightblue" d="M84.63,-230.06C101.85,-257.16 137.54,-307.29 181,-334.5 188.38,-339.12 196.65,-342.87 205.09,-345.9"/>
<polygon fill="midnightblue" stroke="midnightblue" points="87.38,-227.86 79.14,-221.2 81.43,-231.55 87.38,-227.86"/>
</g>
<!-- Node4 -->
<g id="node5" class="node">
<title>Node4</title>
<g id="a_node5"><a xlink:href="class_cloud_once_1_1_quick_start_1_1_achievements_button.html" target="_top" xlink:title="Attach this to your Achievements GUI button.">
<polygon fill="none" stroke="black" points="181,-294.5 181,-324.5 359,-324.5 359,-294.5 181,-294.5"/>
<text text-anchor="start" x="189" y="-312.5" font-family="Helvetica,sans-Serif" font-size="10.00">CloudOnce.QuickStart.Achievements</text>
<text text-anchor="middle" x="270" y="-301.5" font-family="Helvetica,sans-Serif" font-size="10.00">Button</text>
</a>
</g>
</g>
<!-- Node2&#45;&gt;Node4 -->
<g id="edge4" class="edge">
<title>Node2&#45;&gt;Node4</title>
<path fill="none" stroke="midnightblue" d="M92.59,-227.62C113.18,-244.28 147.55,-269.97 181,-285.5 188.18,-288.83 195.92,-291.78 203.71,-294.36"/>
<polygon fill="midnightblue" stroke="midnightblue" points="94.59,-224.74 84.64,-221.09 90.14,-230.15 94.59,-224.74"/>
</g>
<!-- Node5 -->
<g id="node6" class="node">
<title>Node5</title>
<g id="a_node6"><a xlink:href="class_cloud_once_1_1_quick_start_1_1_deactivate_on_awake_if_not_google.html" target="_top" xlink:title="Attach this to any object that should be deactivated if it&#39;s not on Google Play. For example the Goog...">
<polygon fill="none" stroke="black" points="189,-245.5 189,-275.5 351,-275.5 351,-245.5 189,-245.5"/>
<text text-anchor="start" x="197" y="-263.5" font-family="Helvetica,sans-Serif" font-size="10.00">CloudOnce.QuickStart.Deactivate</text>
<text text-anchor="middle" x="270" y="-252.5" font-family="Helvetica,sans-Serif" font-size="10.00">OnAwakeIfNotGoogle</text>
</a>
</g>
</g>
<!-- Node2&#45;&gt;Node5 -->
<g id="edge5" class="edge">
<title>Node2&#45;&gt;Node5</title>
<path fill="none" stroke="midnightblue" d="M121.43,-223.51C147.85,-230.14 180.89,-238.42 209.01,-245.46"/>
<polygon fill="midnightblue" stroke="midnightblue" points="122.21,-220.1 111.66,-221.06 120.51,-226.89 122.21,-220.1"/>
</g>
<!-- Node6 -->
<g id="node7" class="node">
<title>Node6</title>
<g id="a_node7"><a xlink:href="class_cloud_once_1_1_quick_start_1_1_deactivate_on_cloud_once_event.html" target="_top" xlink:title="Deactivate the GameObject that the scripts is attached to when the selected CloudOnce event is called...">
<polygon fill="none" stroke="black" points="189,-196.5 189,-226.5 351,-226.5 351,-196.5 189,-196.5"/>
<text text-anchor="start" x="197" y="-214.5" font-family="Helvetica,sans-Serif" font-size="10.00">CloudOnce.QuickStart.Deactivate</text>
<text text-anchor="middle" x="270" y="-203.5" font-family="Helvetica,sans-Serif" font-size="10.00">OnCloudOnceEvent</text>
</a>
</g>
</g>
<!-- Node2&#45;&gt;Node6 -->
<g id="edge6" class="edge">
<title>Node2&#45;&gt;Node6</title>
<path fill="none" stroke="midnightblue" d="M124.25,-211.5C143.88,-211.5 166.84,-211.5 188.61,-211.5"/>
<polygon fill="midnightblue" stroke="midnightblue" points="124.01,-208 114.01,-211.5 124.01,-215 124.01,-208"/>
</g>
<!-- Node7 -->
<g id="node8" class="node">
<title>Node7</title>
<g id="a_node8"><a xlink:href="class_cloud_once_1_1_quick_start_1_1_google_sign_out_button.html" target="_top" xlink:title="Google requires that players are provided with a sign&#45;out option: https://developers....">
<polygon fill="none" stroke="black" points="196,-147.5 196,-177.5 344,-177.5 344,-147.5 196,-147.5"/>
<text text-anchor="start" x="204" y="-165.5" font-family="Helvetica,sans-Serif" font-size="10.00">CloudOnce.QuickStart.Google</text>
<text text-anchor="middle" x="270" y="-154.5" font-family="Helvetica,sans-Serif" font-size="10.00">SignOutButton</text>
</a>
</g>
</g>
<!-- Node2&#45;&gt;Node7 -->
<g id="edge7" class="edge">
<title>Node2&#45;&gt;Node7</title>
<path fill="none" stroke="midnightblue" d="M121.43,-199.49C147.85,-192.86 180.89,-184.58 209.01,-177.54"/>
<polygon fill="midnightblue" stroke="midnightblue" points="120.51,-196.11 111.66,-201.94 122.21,-202.9 120.51,-196.11"/>
</g>
<!-- Node8 -->
<g id="node9" class="node">
<title>Node8</title>
<g id="a_node9"><a xlink:href="class_cloud_once_1_1_quick_start_1_1_initialize_cloud_once.html" target="_top" xlink:title="Attach this anywhere in the scene you want the players to log in to the native services.">
<polygon fill="none" stroke="black" points="194,-98.5 194,-128.5 346,-128.5 346,-98.5 194,-98.5"/>
<text text-anchor="start" x="202" y="-116.5" font-family="Helvetica,sans-Serif" font-size="10.00">CloudOnce.QuickStart.Initialize</text>
<text text-anchor="middle" x="270" y="-105.5" font-family="Helvetica,sans-Serif" font-size="10.00">CloudOnce</text>
</a>
</g>
</g>
<!-- Node2&#45;&gt;Node8 -->
<g id="edge8" class="edge">
<title>Node2&#45;&gt;Node8</title>
<path fill="none" stroke="midnightblue" d="M92.99,-195.41C113.68,-179.04 147.91,-153.94 181,-138.5 189.06,-134.74 197.8,-131.43 206.55,-128.55"/>
<polygon fill="midnightblue" stroke="midnightblue" points="90.59,-192.85 84.99,-201.84 94.98,-198.31 90.59,-192.85"/>
</g>
<!-- Node9 -->
<g id="node10" class="node">
<title>Node9</title>
<g id="a_node10"><a xlink:href="class_cloud_once_1_1_quick_start_1_1_leaderboards_button.html" target="_top" xlink:title="Attach this to your Leaderboards GUI button.">
<polygon fill="none" stroke="black" points="182,-49.5 182,-79.5 358,-79.5 358,-49.5 182,-49.5"/>
<text text-anchor="start" x="190" y="-67.5" font-family="Helvetica,sans-Serif" font-size="10.00">CloudOnce.QuickStart.Leaderboards</text>
<text text-anchor="middle" x="270" y="-56.5" font-family="Helvetica,sans-Serif" font-size="10.00">Button</text>
</a>
</g>
</g>
<!-- Node2&#45;&gt;Node9 -->
<g id="edge9" class="edge">
<title>Node2&#45;&gt;Node9</title>
<path fill="none" stroke="midnightblue" d="M84.7,-193.15C102.02,-166.35 137.83,-116.73 181,-89.5 187.18,-85.6 193.98,-82.3 200.98,-79.5"/>
<polygon fill="midnightblue" stroke="midnightblue" points="81.55,-191.58 79.18,-201.91 87.48,-195.32 81.55,-191.58"/>
</g>
<!-- Node10 -->
<g id="node11" class="node">
<title>Node10</title>
<g id="a_node11"><a xlink:href="class_cloud_once_1_1_quick_start_1_1_load_scene_on_cloud_once_event.html" target="_top" xlink:title="Loads a scene when the selected CloudOnce event is called.">
<polygon fill="none" stroke="black" points="201,-0.5 201,-30.5 339,-30.5 339,-0.5 201,-0.5"/>
<text text-anchor="start" x="209" y="-18.5" font-family="Helvetica,sans-Serif" font-size="10.00">CloudOnce.QuickStart.Load</text>
<text text-anchor="middle" x="270" y="-7.5" font-family="Helvetica,sans-Serif" font-size="10.00">SceneOnCloudOnceEvent</text>
</a>
</g>
</g>
<!-- Node2&#45;&gt;Node10 -->
<g id="edge10" class="edge">
<title>Node2&#45;&gt;Node10</title>
<path fill="none" stroke="midnightblue" d="M80.1,-192.26C93.36,-156.52 126.7,-79.86 181,-39.5 186.97,-35.06 193.72,-31.44 200.75,-28.49"/>
<polygon fill="midnightblue" stroke="midnightblue" points="76.7,-191.36 76.63,-201.95 83.29,-193.72 76.7,-191.36"/>
</g>
</g>
</svg>
