<?xml version="1.0" encoding="UTF-8" standalone="no"?>
<!DOCTYPE svg PUBLIC "-//W3C//DTD SVG 1.1//EN"
 "http://www.w3.org/Graphics/SVG/1.1/DTD/svg11.dtd">
<!-- Generated by graphviz version 3.0.0 (20220226.1711)
 -->
<!-- Title: Graphical Class Hierarchy Pages: 1 -->
<svg width="370pt" height="186pt"
 viewBox="0.00 0.00 370.00 186.00" xmlns="http://www.w3.org/2000/svg" xmlns:xlink="http://www.w3.org/1999/xlink">
<g id="graph0" class="graph" transform="scale(1 1) rotate(0) translate(4 182)">
<title>Graphical Class Hierarchy</title>
<!-- Node0 -->
<g id="node1" class="node">
<title>Node0</title>
<g id="a_node1"><a xlink:href="interface_cloud_once_1_1_internal_1_1_providers_1_1_i_cloud_storage_provider.html" target="_top" xlink:title="Interface for platform&#45;agnostic access to cloud save.">
<polygon fill="none" stroke="black" points="0,-73.5 0,-103.5 145,-103.5 145,-73.5 0,-73.5"/>
<text text-anchor="start" x="8" y="-91.5" font-family="Helvetica,sans-Serif" font-size="10.00">CloudOnce.Internal.Providers.</text>
<text text-anchor="middle" x="72.5" y="-80.5" font-family="Helvetica,sans-Serif" font-size="10.00">ICloudStorageProvider</text>
</a>
</g>
</g>
<!-- Node1 -->
<g id="node2" class="node">
<title>Node1</title>
<g id="a_node2"><a xlink:href="class_cloud_once_1_1_internal_1_1_providers_1_1_dummy_storage_wrapper.html" target="_top" xlink:title="Dummy storage wrapper for unsupported platforms.">
<polygon fill="none" stroke="black" points="199,-147.5 199,-177.5 344,-177.5 344,-147.5 199,-147.5"/>
<text text-anchor="start" x="207" y="-165.5" font-family="Helvetica,sans-Serif" font-size="10.00">CloudOnce.Internal.Providers.</text>
<text text-anchor="middle" x="271.5" y="-154.5" font-family="Helvetica,sans-Serif" font-size="10.00">DummyStorageWrapper</text>
</a>
</g>
</g>
<!-- Node0&#45;&gt;Node1 -->
<g id="edge1" class="edge">
<title>Node0&#45;&gt;Node1</title>
<path fill="none" stroke="midnightblue" d="M111.77,-108.27C131.99,-118.22 157.45,-129.94 181,-138.5 189.92,-141.74 199.48,-144.77 208.92,-147.5"/>
<polygon fill="midnightblue" stroke="midnightblue" points="113.09,-105.02 102.58,-103.7 109.97,-111.29 113.09,-105.02"/>
</g>
<!-- Node2 -->
<g id="node3" class="node">
<title>Node2</title>
<g id="a_node3"><a xlink:href="class_cloud_once_1_1_internal_1_1_providers_1_1_google_play_games_cloud_save_wrapper.html" target="_top" xlink:title="This wrapper encapsulates the platform specific code needed to provide cloud storage on the Google Pl...">
<polygon fill="none" stroke="black" points="181,-98.5 181,-128.5 362,-128.5 362,-98.5 181,-98.5"/>
<text text-anchor="start" x="189" y="-116.5" font-family="Helvetica,sans-Serif" font-size="10.00">CloudOnce.Internal.Providers.</text>
<text text-anchor="middle" x="271.5" y="-105.5" font-family="Helvetica,sans-Serif" font-size="10.00">GooglePlayGamesCloudSaveWrapper</text>
</a>
</g>
</g>
<!-- Node0&#45;&gt;Node2 -->
<g id="edge2" class="edge">
<title>Node0&#45;&gt;Node2</title>
<path fill="none" stroke="midnightblue" d="M155.31,-98.88C163.7,-99.95 172.26,-101.03 180.73,-102.11"/>
<polygon fill="midnightblue" stroke="midnightblue" points="155.54,-95.38 145.18,-97.6 154.66,-102.33 155.54,-95.38"/>
</g>
<!-- Node3 -->
<g id="node4" class="node">
<title>Node3</title>
<g id="a_node4"><a xlink:href="class_cloud_once_1_1_internal_1_1_providers_1_1_test_provider_storage_wrapper.html" target="_top" xlink:title="For testing cloud save in the editor">
<polygon fill="none" stroke="black" points="199,-49.5 199,-79.5 344,-79.5 344,-49.5 199,-49.5"/>
<text text-anchor="start" x="207" y="-67.5" font-family="Helvetica,sans-Serif" font-size="10.00">CloudOnce.Internal.Providers.</text>
<text text-anchor="middle" x="271.5" y="-56.5" font-family="Helvetica,sans-Serif" font-size="10.00">TestProviderStorageWrapper</text>
</a>
</g>
</g>
<!-- Node0&#45;&gt;Node3 -->
<g id="edge3" class="edge">
<title>Node0&#45;&gt;Node3</title>
<path fill="none" stroke="midnightblue" d="M155.13,-78.56C169.65,-76.79 184.66,-74.96 198.87,-73.23"/>
<polygon fill="midnightblue" stroke="midnightblue" points="154.68,-75.08 145.18,-79.77 155.53,-82.03 154.68,-75.08"/>
</g>
<!-- Node4 -->
<g id="node5" class="node">
<title>Node4</title>
<g id="a_node5"><a xlink:href="class_cloud_once_1_1_internal_1_1_providers_1_1i_o_s_cloud_save_wrapper.html" target="_top" xlink:title="This wrapper encapsulates the platform specific code needed to provide cloud storage on the iOS platf...">
<polygon fill="none" stroke="black" points="198,-0.5 198,-30.5 345,-30.5 345,-0.5 198,-0.5"/>
<text text-anchor="start" x="206" y="-18.5" font-family="Helvetica,sans-Serif" font-size="10.00">CloudOnce.Internal.Providers.i</text>
<text text-anchor="middle" x="271.5" y="-7.5" font-family="Helvetica,sans-Serif" font-size="10.00">OSCloudSaveWrapper</text>
</a>
</g>
</g>
<!-- Node0&#45;&gt;Node4 -->
<g id="edge4" class="edge">
<title>Node0&#45;&gt;Node4</title>
<path fill="none" stroke="midnightblue" d="M113.18,-69.09C133.23,-59.73 158.09,-48.76 181,-40.5 190.86,-36.94 201.49,-33.58 211.85,-30.54"/>
<polygon fill="midnightblue" stroke="midnightblue" points="111.6,-65.97 104.05,-73.41 114.59,-72.3 111.6,-65.97"/>
</g>
</g>
</svg>
