<?xml version="1.0" encoding="UTF-8" standalone="no"?>
<!DOCTYPE svg PUBLIC "-//W3C//DTD SVG 1.1//EN"
 "http://www.w3.org/Graphics/SVG/1.1/DTD/svg11.dtd">
<!-- Generated by graphviz version 3.0.0 (20220226.1711)
 -->
<!-- Title: Graphical Class Hierarchy Pages: 1 -->
<svg width="497pt" height="261pt"
 viewBox="0.00 0.00 497.00 260.50" xmlns="http://www.w3.org/2000/svg" xmlns:xlink="http://www.w3.org/1999/xlink">
<g id="graph0" class="graph" transform="scale(1 1) rotate(0) translate(4 256.5)">
<title>Graphical Class Hierarchy</title>
<!-- Node0 -->
<g id="node1" class="node">
<title>Node0</title>
<g id="a_node1"><a xlink:title=" ">
<polygon fill="none" stroke="#bfbfbf" points="195.5,-221 195.5,-240 257.5,-240 257.5,-221 195.5,-221"/>
<text text-anchor="middle" x="226.5" y="-228" font-family="Helvetica,sans-Serif" font-size="10.00">IEquatable</text>
</a>
</g>
</g>
<!-- Node1 -->
<g id="node2" class="node">
<title>Node1</title>
<g id="a_node2"><a xlink:href="class_cloud_once_1_1_internal_1_1_syncable_item.html" target="_top" xlink:title="Data&#45;class for regular cloud preferences. Takes care of serialization and deserialization of the data...">
<polygon fill="none" stroke="black" points="328,-233 328,-252 489,-252 489,-233 328,-233"/>
<text text-anchor="middle" x="408.5" y="-240" font-family="Helvetica,sans-Serif" font-size="10.00">CloudOnce.Internal.SyncableItem</text>
</a>
</g>
</g>
<!-- Node0&#45;&gt;Node1 -->
<g id="edge1" class="edge">
<title>Node0&#45;&gt;Node1</title>
<path fill="none" stroke="midnightblue" d="M267.64,-233.18C285.46,-234.36 307.09,-235.81 327.95,-237.2"/>
<polygon fill="midnightblue" stroke="midnightblue" points="267.84,-229.68 257.63,-232.51 267.37,-236.67 267.84,-229.68"/>
</g>
<!-- Node5 -->
<g id="node3" class="node">
<title>Node5</title>
<g id="a_node3"><a xlink:href="class_cloud_once_1_1_internal_1_1_syncable_item_meta_data.html" target="_top" xlink:title="Holds data about a SyncableItem.">
<polygon fill="none" stroke="black" points="337,-183.5 337,-213.5 480,-213.5 480,-183.5 337,-183.5"/>
<text text-anchor="start" x="345" y="-201.5" font-family="Helvetica,sans-Serif" font-size="10.00">CloudOnce.Internal.Syncable</text>
<text text-anchor="middle" x="408.5" y="-190.5" font-family="Helvetica,sans-Serif" font-size="10.00">ItemMetaData</text>
</a>
</g>
</g>
<!-- Node0&#45;&gt;Node5 -->
<g id="edge2" class="edge">
<title>Node0&#45;&gt;Node5</title>
<path fill="none" stroke="midnightblue" d="M267.5,-223.39C287.88,-219.77 313.28,-215.25 336.82,-211.07"/>
<polygon fill="midnightblue" stroke="midnightblue" points="266.86,-219.95 257.63,-225.14 268.09,-226.84 266.86,-219.95"/>
</g>
<!-- Node6 -->
<g id="node4" class="node">
<title>Node6</title>
<g id="a_node4"><a xlink:href="interface_cloud_once_1_1_internal_1_1_i_json_deserializable.html" target="_top" xlink:title=" ">
<polygon fill="none" stroke="black" points="0,-147.5 0,-177.5 125,-177.5 125,-147.5 0,-147.5"/>
<text text-anchor="start" x="8" y="-165.5" font-family="Helvetica,sans-Serif" font-size="10.00">CloudOnce.Internal.IJson</text>
<text text-anchor="middle" x="62.5" y="-154.5" font-family="Helvetica,sans-Serif" font-size="10.00">Deserializable</text>
</a>
</g>
</g>
<!-- Node2 -->
<g id="node5" class="node">
<title>Node2</title>
<g id="a_node5"><a xlink:href="interface_cloud_once_1_1_internal_1_1_i_json_convertible.html" target="_top" xlink:title=" ">
<polygon fill="none" stroke="black" points="164,-147.5 164,-177.5 289,-177.5 289,-147.5 164,-147.5"/>
<text text-anchor="start" x="172" y="-165.5" font-family="Helvetica,sans-Serif" font-size="10.00">CloudOnce.Internal.IJson</text>
<text text-anchor="middle" x="226.5" y="-154.5" font-family="Helvetica,sans-Serif" font-size="10.00">Convertible</text>
</a>
</g>
</g>
<!-- Node6&#45;&gt;Node2 -->
<g id="edge3" class="edge">
<title>Node6&#45;&gt;Node2</title>
<path fill="none" stroke="midnightblue" d="M135.44,-162.5C144.96,-162.5 154.64,-162.5 163.96,-162.5"/>
<polygon fill="midnightblue" stroke="midnightblue" points="135.21,-159 125.21,-162.5 135.21,-166 135.21,-159"/>
</g>
<!-- Node2&#45;&gt;Node1 -->
<g id="edge6" class="edge">
<title>Node2&#45;&gt;Node1</title>
<path fill="none" stroke="midnightblue" d="M256.43,-183.4C275.85,-196.56 302.46,-213 328,-223.5 337.19,-227.28 347.29,-230.41 357.13,-232.97"/>
<polygon fill="midnightblue" stroke="midnightblue" points="258.26,-180.41 248.04,-177.61 254.29,-186.17 258.26,-180.41"/>
</g>
<!-- Node2&#45;&gt;Node5 -->
<g id="edge7" class="edge">
<title>Node2&#45;&gt;Node5</title>
<path fill="none" stroke="midnightblue" d="M299.06,-176.81C311.52,-179.3 324.48,-181.9 336.91,-184.38"/>
<polygon fill="midnightblue" stroke="midnightblue" points="299.69,-173.37 289.19,-174.84 298.31,-180.23 299.69,-173.37"/>
</g>
<!-- Node3 -->
<g id="node6" class="node">
<title>Node3</title>
<g id="a_node6"><a xlink:href="class_cloud_once_1_1_internal_1_1_currency_value.html" target="_top" xlink:title="Data&#45;class to store currency value.">
<polygon fill="none" stroke="black" points="338,-134.5 338,-164.5 479,-164.5 479,-134.5 338,-134.5"/>
<text text-anchor="start" x="346" y="-152.5" font-family="Helvetica,sans-Serif" font-size="10.00">CloudOnce.Internal.Currency</text>
<text text-anchor="middle" x="408.5" y="-141.5" font-family="Helvetica,sans-Serif" font-size="10.00">Value</text>
</a>
</g>
</g>
<!-- Node2&#45;&gt;Node3 -->
<g id="edge4" class="edge">
<title>Node2&#45;&gt;Node3</title>
<path fill="none" stroke="midnightblue" d="M299.26,-157.32C311.98,-156.4 325.2,-155.44 337.85,-154.53"/>
<polygon fill="midnightblue" stroke="midnightblue" points="298.92,-153.83 289.19,-158.04 299.42,-160.81 298.92,-153.83"/>
</g>
<!-- Node4 -->
<g id="node7" class="node">
<title>Node4</title>
<g id="a_node7"><a xlink:href="class_cloud_once_1_1_internal_1_1_syncable_currency.html" target="_top" xlink:title="Handles virtual currencies. Keeps a record of all the earnings and purchases for every device the use...">
<polygon fill="none" stroke="black" points="337,-85.5 337,-115.5 480,-115.5 480,-85.5 337,-85.5"/>
<text text-anchor="start" x="345" y="-103.5" font-family="Helvetica,sans-Serif" font-size="10.00">CloudOnce.Internal.Syncable</text>
<text text-anchor="middle" x="408.5" y="-92.5" font-family="Helvetica,sans-Serif" font-size="10.00">Currency</text>
</a>
</g>
</g>
<!-- Node2&#45;&gt;Node4 -->
<g id="edge5" class="edge">
<title>Node2&#45;&gt;Node4</title>
<path fill="none" stroke="midnightblue" d="M277.57,-143.95C300.03,-135.65 322.69,-127.31 328,-125.5 337.72,-122.18 348.17,-118.78 358.19,-115.6"/>
<polygon fill="midnightblue" stroke="midnightblue" points="276.17,-140.73 268,-147.48 278.6,-147.3 276.17,-140.73"/>
</g>
<!-- Node7 -->
<g id="node8" class="node">
<title>Node7</title>
<g id="a_node8"><a xlink:href="interface_cloud_once_1_1_internal_1_1_i_json_serializable.html" target="_top" xlink:title=" ">
<polygon fill="none" stroke="black" points="0,-52.5 0,-82.5 125,-82.5 125,-52.5 0,-52.5"/>
<text text-anchor="start" x="8" y="-70.5" font-family="Helvetica,sans-Serif" font-size="10.00">CloudOnce.Internal.IJson</text>
<text text-anchor="middle" x="62.5" y="-59.5" font-family="Helvetica,sans-Serif" font-size="10.00">Serializable</text>
</a>
</g>
</g>
<!-- Node7&#45;&gt;Node2 -->
<g id="edge11" class="edge">
<title>Node7&#45;&gt;Node2</title>
<path fill="none" stroke="midnightblue" d="M114.11,-87.32C117.92,-89.53 121.6,-91.92 125,-94.5 145.12,-109.78 140.45,-123.81 161,-138.5 165.76,-141.9 171.07,-144.89 176.53,-147.48"/>
<polygon fill="midnightblue" stroke="midnightblue" points="115.51,-84.1 105.04,-82.51 112.23,-90.29 115.51,-84.1"/>
</g>
<!-- Node8 -->
<g id="node9" class="node">
<title>Node8</title>
<g id="a_node9"><a xlink:href="class_cloud_once_1_1_internal_1_1_editor_1_1_data_1_1_cloud_config.html" target="_top" xlink:title="Data&#45;class for storing CloudOnce configuration.">
<polygon fill="none" stroke="black" points="161,-98.5 161,-128.5 292,-128.5 292,-98.5 161,-98.5"/>
<text text-anchor="start" x="169" y="-116.5" font-family="Helvetica,sans-Serif" font-size="10.00">CloudOnce.Internal.Editor.</text>
<text text-anchor="middle" x="226.5" y="-105.5" font-family="Helvetica,sans-Serif" font-size="10.00">Data.CloudConfig</text>
</a>
</g>
</g>
<!-- Node7&#45;&gt;Node8 -->
<g id="edge8" class="edge">
<title>Node7&#45;&gt;Node8</title>
<path fill="none" stroke="midnightblue" d="M126.42,-85.37C141.69,-89.7 157.86,-94.29 172.61,-98.48"/>
<polygon fill="midnightblue" stroke="midnightblue" points="127.12,-81.93 116.54,-82.56 125.21,-88.66 127.12,-81.93"/>
</g>
<!-- Node10 -->
<g id="node10" class="node">
<title>Node10</title>
<g id="a_node10"><a xlink:href="class_cloud_once_1_1_internal_1_1_editor_1_1_data_1_1_cloud_variable_data.html" target="_top" xlink:title="Stores info about cloud variables declared in the CloudOnce Editor">
<polygon fill="none" stroke="black" points="161,-0.5 161,-30.5 292,-30.5 292,-0.5 161,-0.5"/>
<text text-anchor="start" x="169" y="-18.5" font-family="Helvetica,sans-Serif" font-size="10.00">CloudOnce.Internal.Editor.</text>
<text text-anchor="middle" x="226.5" y="-7.5" font-family="Helvetica,sans-Serif" font-size="10.00">Data.CloudVariableData</text>
</a>
</g>
</g>
<!-- Node7&#45;&gt;Node10 -->
<g id="edge9" class="edge">
<title>Node7&#45;&gt;Node10</title>
<path fill="none" stroke="midnightblue" d="M119.9,-49.4C139.12,-43.23 160.37,-36.41 178.75,-30.51"/>
<polygon fill="midnightblue" stroke="midnightblue" points="118.81,-46.07 110.36,-52.46 120.95,-52.74 118.81,-46.07"/>
</g>
<!-- Node11 -->
<g id="node11" class="node">
<title>Node11</title>
<g id="a_node11"><a xlink:href="class_cloud_once_1_1_internal_1_1_editor_1_1_data_1_1_platform_id_data.html" target="_top" xlink:title="Stores achievement/leaderboard IDs for each supported platform as well as an internal ID.">
<polygon fill="none" stroke="black" points="161,-49.5 161,-79.5 292,-79.5 292,-49.5 161,-49.5"/>
<text text-anchor="start" x="169" y="-67.5" font-family="Helvetica,sans-Serif" font-size="10.00">CloudOnce.Internal.Editor.</text>
<text text-anchor="middle" x="226.5" y="-56.5" font-family="Helvetica,sans-Serif" font-size="10.00">Data.PlatformIdData</text>
</a>
</g>
</g>
<!-- Node7&#45;&gt;Node11 -->
<g id="edge10" class="edge">
<title>Node7&#45;&gt;Node11</title>
<path fill="none" stroke="midnightblue" d="M135.4,-66.17C143.84,-66.01 152.4,-65.85 160.73,-65.7"/>
<polygon fill="midnightblue" stroke="midnightblue" points="135.14,-62.67 125.21,-66.36 135.27,-69.67 135.14,-62.67"/>
</g>
<!-- Node9 -->
<g id="node12" class="node">
<title>Node9</title>
<g id="a_node12"><a xlink:title=" ">
<polygon fill="none" stroke="#bfbfbf" points="18,-104 18,-123 107,-123 107,-104 18,-104"/>
<text text-anchor="middle" x="62.5" y="-111" font-family="Helvetica,sans-Serif" font-size="10.00">ScriptableObject</text>
</a>
</g>
</g>
<!-- Node9&#45;&gt;Node8 -->
<g id="edge12" class="edge">
<title>Node9&#45;&gt;Node8</title>
<path fill="none" stroke="midnightblue" d="M117.68,-113.5C131.55,-113.5 146.6,-113.5 160.94,-113.5"/>
<polygon fill="midnightblue" stroke="midnightblue" points="117.34,-110 107.34,-113.5 117.34,-117 117.34,-110"/>
</g>
</g>
</svg>
