<?xml version="1.0" encoding="UTF-8" standalone="no"?>
<!DOCTYPE svg PUBLIC "-//W3C//DTD SVG 1.1//EN"
 "http://www.w3.org/Graphics/SVG/1.1/DTD/svg11.dtd">
<!-- Generated by graphviz version 3.0.0 (20220226.1711)
 -->
<!-- Title: Graphical Class Hierarchy Pages: 1 -->
<svg width="518pt" height="112pt"
 viewBox="0.00 0.00 518.00 112.00" xmlns="http://www.w3.org/2000/svg" xmlns:xlink="http://www.w3.org/1999/xlink">
<g id="graph0" class="graph" transform="scale(1 1) rotate(0) translate(4 108)">
<title>Graphical Class Hierarchy</title>
<!-- Node0 -->
<g id="node1" class="node">
<title>Node0</title>
<g id="a_node1"><a xlink:href="interface_cloud_once_1_1_internal_1_1_i_persistent.html" target="_top" xlink:title="Used by cloud preferences to facilitate loading and saving of data.">
<polygon fill="none" stroke="black" points="0,-30 0,-49 149,-49 149,-30 0,-30"/>
<text text-anchor="middle" x="74.5" y="-37" font-family="Helvetica,sans-Serif" font-size="10.00">CloudOnce.Internal.IPersistent</text>
</a>
</g>
</g>
<!-- Node1 -->
<g id="node2" class="node">
<title>Node1</title>
<g id="a_node2"><a xlink:href="class_cloud_once_1_1_internal_1_1_persistent_currency.html" target="_top" xlink:title="A currency that is stored in the cloud.">
<polygon fill="none" stroke="black" points="185,-49.5 185,-79.5 331,-79.5 331,-49.5 185,-49.5"/>
<text text-anchor="start" x="193" y="-67.5" font-family="Helvetica,sans-Serif" font-size="10.00">CloudOnce.Internal.Persistent</text>
<text text-anchor="middle" x="258" y="-56.5" font-family="Helvetica,sans-Serif" font-size="10.00">Currency</text>
</a>
</g>
</g>
<!-- Node0&#45;&gt;Node1 -->
<g id="edge1" class="edge">
<title>Node0&#45;&gt;Node1</title>
<path fill="none" stroke="midnightblue" d="M154.58,-50.39C164.61,-51.77 174.83,-53.18 184.74,-54.55"/>
<polygon fill="midnightblue" stroke="midnightblue" points="155.02,-46.92 144.64,-49.02 154.06,-53.85 155.02,-46.92"/>
</g>
<!-- Node4 -->
<g id="node5" class="node">
<title>Node4</title>
<g id="a_node5"><a xlink:href="class_cloud_once_1_1_internal_1_1_persistent_value.html" target="_top" xlink:title="A preference that is stored in the cloud.">
<polygon fill="none" stroke="black" points="185,-0.5 185,-30.5 331,-30.5 331,-0.5 185,-0.5"/>
<text text-anchor="start" x="193" y="-18.5" font-family="Helvetica,sans-Serif" font-size="10.00">CloudOnce.Internal.Persistent</text>
<text text-anchor="middle" x="258" y="-7.5" font-family="Helvetica,sans-Serif" font-size="10.00">Value&lt; T &gt;</text>
</a>
</g>
</g>
<!-- Node0&#45;&gt;Node4 -->
<g id="edge4" class="edge">
<title>Node0&#45;&gt;Node4</title>
<path fill="none" stroke="midnightblue" d="M157.65,-28.64C166.7,-27.44 175.88,-26.23 184.8,-25.05"/>
<polygon fill="midnightblue" stroke="midnightblue" points="156.95,-25.2 147.49,-29.98 157.87,-32.14 156.95,-25.2"/>
</g>
<!-- Node2 -->
<g id="node3" class="node">
<title>Node2</title>
<g id="a_node3"><a xlink:href="class_cloud_once_1_1_cloud_prefs_1_1_cloud_currency_float.html" target="_top" xlink:title="Used to create virtual currencies that gets stored in the cloud. This type uses float values....">
<polygon fill="none" stroke="black" points="367,-73.5 367,-103.5 510,-103.5 510,-73.5 367,-73.5"/>
<text text-anchor="start" x="375" y="-91.5" font-family="Helvetica,sans-Serif" font-size="10.00">CloudOnce.CloudPrefs.Cloud</text>
<text text-anchor="middle" x="438.5" y="-80.5" font-family="Helvetica,sans-Serif" font-size="10.00">CurrencyFloat</text>
</a>
</g>
</g>
<!-- Node1&#45;&gt;Node2 -->
<g id="edge2" class="edge">
<title>Node1&#45;&gt;Node2</title>
<path fill="none" stroke="midnightblue" d="M341.13,-75.54C349.73,-76.7 358.42,-77.87 366.88,-79.01"/>
<polygon fill="midnightblue" stroke="midnightblue" points="341.47,-72.06 331.09,-74.19 340.53,-78.99 341.47,-72.06"/>
</g>
<!-- Node3 -->
<g id="node4" class="node">
<title>Node3</title>
<g id="a_node4"><a xlink:href="class_cloud_once_1_1_cloud_prefs_1_1_cloud_currency_int.html" target="_top" xlink:title="Used to create virtual currencies that gets stored in the cloud. This type uses int values....">
<polygon fill="none" stroke="black" points="367,-24.5 367,-54.5 510,-54.5 510,-24.5 367,-24.5"/>
<text text-anchor="start" x="375" y="-42.5" font-family="Helvetica,sans-Serif" font-size="10.00">CloudOnce.CloudPrefs.Cloud</text>
<text text-anchor="middle" x="438.5" y="-31.5" font-family="Helvetica,sans-Serif" font-size="10.00">CurrencyInt</text>
</a>
</g>
</g>
<!-- Node1&#45;&gt;Node3 -->
<g id="edge3" class="edge">
<title>Node1&#45;&gt;Node3</title>
<path fill="none" stroke="midnightblue" d="M341.13,-53C349.73,-51.79 358.42,-50.58 366.88,-49.39"/>
<polygon fill="midnightblue" stroke="midnightblue" points="340.51,-49.55 331.09,-54.4 341.48,-56.48 340.51,-49.55"/>
</g>
</g>
</svg>
