<?xml version="1.0" encoding="UTF-8" standalone="no"?>
<!DOCTYPE svg PUBLIC "-//W3C//DTD SVG 1.1//EN"
 "http://www.w3.org/Graphics/SVG/1.1/DTD/svg11.dtd">
<!-- Generated by graphviz version 3.0.0 (20220226.1711)
 -->
<!-- Title: CloudOnce.Internal.IPersistent Pages: 1 -->
<svg width="397pt" height="162pt"
 viewBox="0.00 0.00 396.50 162.00" xmlns="http://www.w3.org/2000/svg" xmlns:xlink="http://www.w3.org/1999/xlink">
<g id="graph0" class="graph" transform="scale(1 1) rotate(0) translate(4 158)">
<title>CloudOnce.Internal.IPersistent</title>
<!-- Node1 -->
<g id="node1" class="node">
<title>Node1</title>
<g id="a_node1"><a xlink:title="Used by cloud preferences to facilitate loading and saving of data.">
<polygon fill="#bfbfbf" stroke="black" points="159,-134.5 159,-153.5 308,-153.5 308,-134.5 159,-134.5"/>
<text text-anchor="middle" x="233.5" y="-141.5" font-family="Helvetica,sans-Serif" font-size="10.00">CloudOnce.Internal.IPersistent</text>
</a>
</g>
</g>
<!-- Node2 -->
<g id="node2" class="node">
<title>Node2</title>
<g id="a_node2"><a xlink:href="class_cloud_once_1_1_internal_1_1_persistent_currency.html" target="_top" xlink:title="A currency that is stored in the cloud.">
<polygon fill="none" stroke="black" points="78.5,-67.5 78.5,-97.5 224.5,-97.5 224.5,-67.5 78.5,-67.5"/>
<text text-anchor="start" x="86.5" y="-85.5" font-family="Helvetica,sans-Serif" font-size="10.00">CloudOnce.Internal.Persistent</text>
<text text-anchor="middle" x="151.5" y="-74.5" font-family="Helvetica,sans-Serif" font-size="10.00">Currency</text>
</a>
</g>
</g>
<!-- Node1&#45;&gt;Node2 -->
<g id="edge1" class="edge">
<title>Node1&#45;&gt;Node2</title>
<path fill="none" stroke="midnightblue" d="M213.47,-128.47C200.49,-119.05 183.67,-106.84 170.83,-97.52"/>
<polygon fill="midnightblue" stroke="midnightblue" points="211.6,-131.43 221.75,-134.48 215.71,-125.77 211.6,-131.43"/>
</g>
<!-- Node5 -->
<g id="node5" class="node">
<title>Node5</title>
<g id="a_node5"><a xlink:href="class_cloud_once_1_1_internal_1_1_persistent_value.html" target="_top" xlink:title="A preference that is stored in the cloud.">
<polygon fill="none" stroke="black" points="242.5,-67.5 242.5,-97.5 388.5,-97.5 388.5,-67.5 242.5,-67.5"/>
<text text-anchor="start" x="250.5" y="-85.5" font-family="Helvetica,sans-Serif" font-size="10.00">CloudOnce.Internal.Persistent</text>
<text text-anchor="middle" x="315.5" y="-74.5" font-family="Helvetica,sans-Serif" font-size="10.00">Value&lt; T &gt;</text>
</a>
</g>
</g>
<!-- Node1&#45;&gt;Node5 -->
<g id="edge4" class="edge">
<title>Node1&#45;&gt;Node5</title>
<path fill="none" stroke="midnightblue" d="M253.53,-128.47C266.51,-119.05 283.33,-106.84 296.17,-97.52"/>
<polygon fill="midnightblue" stroke="midnightblue" points="251.29,-125.77 245.25,-134.48 255.4,-131.43 251.29,-125.77"/>
</g>
<!-- Node3 -->
<g id="node3" class="node">
<title>Node3</title>
<g id="a_node3"><a xlink:href="class_cloud_once_1_1_cloud_prefs_1_1_cloud_currency_float.html" target="_top" xlink:title="Used to create virtual currencies that gets stored in the cloud. This type uses float values....">
<polygon fill="none" stroke="black" points="0,-0.5 0,-30.5 143,-30.5 143,-0.5 0,-0.5"/>
<text text-anchor="start" x="8" y="-18.5" font-family="Helvetica,sans-Serif" font-size="10.00">CloudOnce.CloudPrefs.Cloud</text>
<text text-anchor="middle" x="71.5" y="-7.5" font-family="Helvetica,sans-Serif" font-size="10.00">CurrencyFloat</text>
</a>
</g>
</g>
<!-- Node2&#45;&gt;Node3 -->
<g id="edge2" class="edge">
<title>Node2&#45;&gt;Node3</title>
<path fill="none" stroke="midnightblue" d="M126.13,-60.88C113.97,-51.01 99.72,-39.43 88.82,-30.58"/>
<polygon fill="midnightblue" stroke="midnightblue" points="124.17,-63.81 134.14,-67.4 128.59,-58.37 124.17,-63.81"/>
</g>
<!-- Node4 -->
<g id="node4" class="node">
<title>Node4</title>
<g id="a_node4"><a xlink:href="class_cloud_once_1_1_cloud_prefs_1_1_cloud_currency_int.html" target="_top" xlink:title="Used to create virtual currencies that gets stored in the cloud. This type uses int values....">
<polygon fill="none" stroke="black" points="161,-0.5 161,-30.5 304,-30.5 304,-0.5 161,-0.5"/>
<text text-anchor="start" x="169" y="-18.5" font-family="Helvetica,sans-Serif" font-size="10.00">CloudOnce.CloudPrefs.Cloud</text>
<text text-anchor="middle" x="232.5" y="-7.5" font-family="Helvetica,sans-Serif" font-size="10.00">CurrencyInt</text>
</a>
</g>
</g>
<!-- Node2&#45;&gt;Node4 -->
<g id="edge3" class="edge">
<title>Node2&#45;&gt;Node4</title>
<path fill="none" stroke="midnightblue" d="M177.19,-60.88C189.5,-51.01 203.93,-39.43 214.96,-30.58"/>
<polygon fill="midnightblue" stroke="midnightblue" points="174.68,-58.41 169.08,-67.4 179.07,-63.87 174.68,-58.41"/>
</g>
</g>
</svg>
