<?xml version="1.0" encoding="UTF-8" standalone="no"?>
<!DOCTYPE svg PUBLIC "-//W3C//DTD SVG 1.1//EN"
 "http://www.w3.org/Graphics/SVG/1.1/DTD/svg11.dtd">
<!-- Generated by graphviz version 3.0.0 (20220226.1711)
 -->
<!-- Title: CloudOnce.Internal.Utils.ILeaderboardUtils Pages: 1 -->
<svg width="294pt" height="137pt"
 viewBox="0.00 0.00 294.00 137.00" xmlns="http://www.w3.org/2000/svg" xmlns:xlink="http://www.w3.org/1999/xlink">
<g id="graph0" class="graph" transform="scale(1 1) rotate(0) translate(4 133)">
<title>CloudOnce.Internal.Utils.ILeaderboardUtils</title>
<!-- Node1 -->
<g id="node1" class="node">
<title>Node1</title>
<g id="a_node1"><a xlink:title="Interface for platform&#45;agnostic leaderboard utilities">
<polygon fill="#bfbfbf" stroke="black" points="0,-49.5 0,-79.5 125,-79.5 125,-49.5 0,-49.5"/>
<text text-anchor="start" x="8" y="-67.5" font-family="Helvetica,sans-Serif" font-size="10.00">CloudOnce.Internal.Utils.</text>
<text text-anchor="middle" x="62.5" y="-56.5" font-family="Helvetica,sans-Serif" font-size="10.00">ILeaderboardUtils</text>
</a>
</g>
</g>
<!-- Node2 -->
<g id="node2" class="node">
<title>Node2</title>
<g id="a_node2"><a xlink:href="class_cloud_once_1_1_internal_1_1_utils_1_1_apple_leaderboard_utils.html" target="_top" xlink:title="iOS Game Center implementation of ILeaderboardUtils">
<polygon fill="none" stroke="black" points="161,-98.5 161,-128.5 286,-128.5 286,-98.5 161,-98.5"/>
<text text-anchor="start" x="169" y="-116.5" font-family="Helvetica,sans-Serif" font-size="10.00">CloudOnce.Internal.Utils.</text>
<text text-anchor="middle" x="223.5" y="-105.5" font-family="Helvetica,sans-Serif" font-size="10.00">AppleLeaderboardUtils</text>
</a>
</g>
</g>
<!-- Node1&#45;&gt;Node2 -->
<g id="edge1" class="edge">
<title>Node1&#45;&gt;Node2</title>
<path fill="none" stroke="midnightblue" d="M122.27,-82.61C139.18,-87.82 157.43,-93.45 173.66,-98.45"/>
<polygon fill="midnightblue" stroke="midnightblue" points="123.09,-79.2 112.5,-79.6 121.03,-85.89 123.09,-79.2"/>
</g>
<!-- Node3 -->
<g id="node3" class="node">
<title>Node3</title>
<g id="a_node3"><a xlink:href="class_cloud_once_1_1_internal_1_1_utils_1_1_editor_leaderboard_utils.html" target="_top" xlink:title="Unity Editor implementation of ILeaderboardUtils">
<polygon fill="none" stroke="black" points="161,-49.5 161,-79.5 286,-79.5 286,-49.5 161,-49.5"/>
<text text-anchor="start" x="169" y="-67.5" font-family="Helvetica,sans-Serif" font-size="10.00">CloudOnce.Internal.Utils.</text>
<text text-anchor="middle" x="223.5" y="-56.5" font-family="Helvetica,sans-Serif" font-size="10.00">EditorLeaderboardUtils</text>
</a>
</g>
</g>
<!-- Node1&#45;&gt;Node3 -->
<g id="edge2" class="edge">
<title>Node1&#45;&gt;Node3</title>
<path fill="none" stroke="midnightblue" d="M135.59,-64.5C143.99,-64.5 152.5,-64.5 160.74,-64.5"/>
<polygon fill="midnightblue" stroke="midnightblue" points="135.43,-61 125.43,-64.5 135.43,-68 135.43,-61"/>
</g>
<!-- Node4 -->
<g id="node4" class="node">
<title>Node4</title>
<g id="a_node4"><a xlink:href="class_cloud_once_1_1_internal_1_1_utils_1_1_google_leaderboard_utils.html" target="_top" xlink:title="Google Play Game Services implementation of ILeaderboardUtils">
<polygon fill="none" stroke="black" points="161,-0.5 161,-30.5 286,-30.5 286,-0.5 161,-0.5"/>
<text text-anchor="start" x="169" y="-18.5" font-family="Helvetica,sans-Serif" font-size="10.00">CloudOnce.Internal.Utils.</text>
<text text-anchor="middle" x="223.5" y="-7.5" font-family="Helvetica,sans-Serif" font-size="10.00">GoogleLeaderboardUtils</text>
</a>
</g>
</g>
<!-- Node1&#45;&gt;Node4 -->
<g id="edge3" class="edge">
<title>Node1&#45;&gt;Node4</title>
<path fill="none" stroke="midnightblue" d="M122.27,-46.39C139.18,-41.18 157.43,-35.55 173.66,-30.55"/>
<polygon fill="midnightblue" stroke="midnightblue" points="121.03,-43.11 112.5,-49.4 123.09,-49.8 121.03,-43.11"/>
</g>
</g>
</svg>
