<?xml version="1.0" encoding="UTF-8" standalone="no"?>
<!DOCTYPE svg PUBLIC "-//W3C//DTD SVG 1.1//EN"
 "http://www.w3.org/Graphics/SVG/1.1/DTD/svg11.dtd">
<!-- Generated by graphviz version 3.0.0 (20220226.1711)
 -->
<!-- Title: CloudOnce.Internal.IJsonConvertible Pages: 1 -->
<svg width="466pt" height="176pt"
 viewBox="0.00 0.00 466.00 176.00" xmlns="http://www.w3.org/2000/svg" xmlns:xlink="http://www.w3.org/1999/xlink">
<g id="graph0" class="graph" transform="scale(1 1) rotate(0) translate(4 172)">
<title>CloudOnce.Internal.IJsonConvertible</title>
<!-- Node1 -->
<g id="node1" class="node">
<title>Node1</title>
<g id="a_node1"><a xlink:title=" ">
<polygon fill="#bfbfbf" stroke="black" points="136,-66.5 136,-96.5 261,-96.5 261,-66.5 136,-66.5"/>
<text text-anchor="start" x="144" y="-84.5" font-family="Helvetica,sans-Serif" font-size="10.00">CloudOnce.Internal.IJson</text>
<text text-anchor="middle" x="198.5" y="-73.5" font-family="Helvetica,sans-Serif" font-size="10.00">Convertible</text>
</a>
</g>
</g>
<!-- Node4 -->
<g id="node4" class="node">
<title>Node4</title>
<g id="a_node4"><a xlink:href="class_cloud_once_1_1_internal_1_1_currency_value.html" target="_top" xlink:title="Data&#45;class to store currency value.">
<polygon fill="none" stroke="black" points="307,-137.5 307,-167.5 448,-167.5 448,-137.5 307,-137.5"/>
<text text-anchor="start" x="315" y="-155.5" font-family="Helvetica,sans-Serif" font-size="10.00">CloudOnce.Internal.Currency</text>
<text text-anchor="middle" x="377.5" y="-144.5" font-family="Helvetica,sans-Serif" font-size="10.00">Value</text>
</a>
</g>
</g>
<!-- Node1&#45;&gt;Node4 -->
<g id="edge3" class="edge">
<title>Node1&#45;&gt;Node4</title>
<path fill="none" stroke="midnightblue" d="M236.95,-101.24C254.83,-110.24 276.72,-120.61 297,-128.5 305.2,-131.69 314,-134.72 322.66,-137.49"/>
<polygon fill="midnightblue" stroke="midnightblue" points="238.49,-98.1 227.99,-96.69 235.31,-104.34 238.49,-98.1"/>
</g>
<!-- Node5 -->
<g id="node5" class="node">
<title>Node5</title>
<g id="a_node5"><a xlink:href="class_cloud_once_1_1_internal_1_1_syncable_currency.html" target="_top" xlink:title="Handles virtual currencies. Keeps a record of all the earnings and purchases for every device the use...">
<polygon fill="none" stroke="black" points="306,-88.5 306,-118.5 449,-118.5 449,-88.5 306,-88.5"/>
<text text-anchor="start" x="314" y="-106.5" font-family="Helvetica,sans-Serif" font-size="10.00">CloudOnce.Internal.Syncable</text>
<text text-anchor="middle" x="377.5" y="-95.5" font-family="Helvetica,sans-Serif" font-size="10.00">Currency</text>
</a>
</g>
</g>
<!-- Node1&#45;&gt;Node5 -->
<g id="edge4" class="edge">
<title>Node1&#45;&gt;Node5</title>
<path fill="none" stroke="midnightblue" d="M271.65,-90.47C282.94,-91.87 294.59,-93.32 305.85,-94.72"/>
<polygon fill="midnightblue" stroke="midnightblue" points="271.76,-86.95 261.41,-89.19 270.9,-93.9 271.76,-86.95"/>
</g>
<!-- Node6 -->
<g id="node6" class="node">
<title>Node6</title>
<g id="a_node6"><a xlink:href="class_cloud_once_1_1_internal_1_1_syncable_item.html" target="_top" xlink:title="Data&#45;class for regular cloud preferences. Takes care of serialization and deserialization of the data...">
<polygon fill="none" stroke="black" points="297,-50 297,-69 458,-69 458,-50 297,-50"/>
<text text-anchor="middle" x="377.5" y="-57" font-family="Helvetica,sans-Serif" font-size="10.00">CloudOnce.Internal.SyncableItem</text>
</a>
</g>
</g>
<!-- Node1&#45;&gt;Node6 -->
<g id="edge5" class="edge">
<title>Node1&#45;&gt;Node6</title>
<path fill="none" stroke="midnightblue" d="M271.48,-72.55C280.88,-71.39 290.53,-70.19 300,-69.01"/>
<polygon fill="midnightblue" stroke="midnightblue" points="270.9,-69.1 261.41,-73.81 271.76,-76.05 270.9,-69.1"/>
</g>
<!-- Node7 -->
<g id="node7" class="node">
<title>Node7</title>
<g id="a_node7"><a xlink:href="class_cloud_once_1_1_internal_1_1_syncable_item_meta_data.html" target="_top" xlink:title="Holds data about a SyncableItem.">
<polygon fill="none" stroke="black" points="306,-0.5 306,-30.5 449,-30.5 449,-0.5 306,-0.5"/>
<text text-anchor="start" x="314" y="-18.5" font-family="Helvetica,sans-Serif" font-size="10.00">CloudOnce.Internal.Syncable</text>
<text text-anchor="middle" x="377.5" y="-7.5" font-family="Helvetica,sans-Serif" font-size="10.00">ItemMetaData</text>
</a>
</g>
</g>
<!-- Node1&#45;&gt;Node7 -->
<g id="edge6" class="edge">
<title>Node1&#45;&gt;Node7</title>
<path fill="none" stroke="midnightblue" d="M242.6,-62.36C259.43,-55.15 278.98,-47.1 297,-40.5 306.37,-37.06 316.47,-33.66 326.22,-30.53"/>
<polygon fill="midnightblue" stroke="midnightblue" points="240.83,-59.31 233.03,-66.49 243.6,-65.73 240.83,-59.31"/>
</g>
<!-- Node2 -->
<g id="node2" class="node">
<title>Node2</title>
<g id="a_node2"><a xlink:href="interface_cloud_once_1_1_internal_1_1_i_json_serializable.html" target="_top" xlink:title=" ">
<polygon fill="none" stroke="#bfbfbf" points="5.5,-91 5.5,-110 94.5,-110 94.5,-91 5.5,-91"/>
<text text-anchor="middle" x="50" y="-98" font-family="Helvetica,sans-Serif" font-size="10.00">IJsonSerializable</text>
</a>
</g>
</g>
<!-- Node2&#45;&gt;Node1 -->
<g id="edge1" class="edge">
<title>Node2&#45;&gt;Node1</title>
<path fill="none" stroke="midnightblue" d="M104.55,-93.56C114.76,-92.23 125.51,-90.84 135.95,-89.48"/>
<polygon fill="midnightblue" stroke="midnightblue" points="104.02,-90.09 94.56,-94.85 104.93,-97.04 104.02,-90.09"/>
</g>
<!-- Node3 -->
<g id="node3" class="node">
<title>Node3</title>
<g id="a_node3"><a xlink:href="interface_cloud_once_1_1_internal_1_1_i_json_deserializable.html" target="_top" xlink:title=" ">
<polygon fill="none" stroke="#bfbfbf" points="0,-53 0,-72 100,-72 100,-53 0,-53"/>
<text text-anchor="middle" x="50" y="-60" font-family="Helvetica,sans-Serif" font-size="10.00">IJsonDeserializable</text>
</a>
</g>
</g>
<!-- Node3&#45;&gt;Node1 -->
<g id="edge2" class="edge">
<title>Node3&#45;&gt;Node1</title>
<path fill="none" stroke="midnightblue" d="M110.33,-70.19C118.77,-71.29 127.47,-72.42 135.95,-73.52"/>
<polygon fill="midnightblue" stroke="midnightblue" points="110.56,-66.69 100.19,-68.88 109.66,-73.64 110.56,-66.69"/>
</g>
</g>
</svg>
