<?xml version="1.0" encoding="UTF-8" standalone="no"?>
<!DOCTYPE svg PUBLIC "-//W3C//DTD SVG 1.1//EN"
 "http://www.w3.org/Graphics/SVG/1.1/DTD/svg11.dtd">
<!-- Generated by graphviz version 3.0.0 (20220226.1711)
 -->
<!-- Title: CloudOnce.Internal.IJsonSerializable Pages: 1 -->
<svg width="497pt" height="252pt"
 viewBox="0.00 0.00 497.00 252.00" xmlns="http://www.w3.org/2000/svg" xmlns:xlink="http://www.w3.org/1999/xlink">
<g id="graph0" class="graph" transform="scale(1 1) rotate(0) translate(4 248)">
<title>CloudOnce.Internal.IJsonSerializable</title>
<!-- Node1 -->
<g id="node1" class="node">
<title>Node1</title>
<g id="a_node1"><a xlink:title=" ">
<polygon fill="#bfbfbf" stroke="black" points="0,-139.5 0,-169.5 125,-169.5 125,-139.5 0,-139.5"/>
<text text-anchor="start" x="8" y="-157.5" font-family="Helvetica,sans-Serif" font-size="10.00">CloudOnce.Internal.IJson</text>
<text text-anchor="middle" x="62.5" y="-146.5" font-family="Helvetica,sans-Serif" font-size="10.00">Serializable</text>
</a>
</g>
</g>
<!-- Node2 -->
<g id="node2" class="node">
<title>Node2</title>
<g id="a_node2"><a xlink:href="class_cloud_once_1_1_internal_1_1_editor_1_1_data_1_1_cloud_config.html" target="_top" xlink:title="Data&#45;class for storing CloudOnce configuration.">
<polygon fill="none" stroke="black" points="161,-213.5 161,-243.5 292,-243.5 292,-213.5 161,-213.5"/>
<text text-anchor="start" x="169" y="-231.5" font-family="Helvetica,sans-Serif" font-size="10.00">CloudOnce.Internal.Editor.</text>
<text text-anchor="middle" x="226.5" y="-220.5" font-family="Helvetica,sans-Serif" font-size="10.00">Data.CloudConfig</text>
</a>
</g>
</g>
<!-- Node1&#45;&gt;Node2 -->
<g id="edge1" class="edge">
<title>Node1&#45;&gt;Node2</title>
<path fill="none" stroke="midnightblue" d="M99.88,-174.44C118,-184.05 140.39,-195.42 161,-204.5 168,-207.58 175.53,-210.62 182.89,-213.45"/>
<polygon fill="midnightblue" stroke="midnightblue" points="101.29,-171.23 90.82,-169.6 97.99,-177.4 101.29,-171.23"/>
</g>
<!-- Node3 -->
<g id="node3" class="node">
<title>Node3</title>
<g id="a_node3"><a xlink:href="class_cloud_once_1_1_internal_1_1_editor_1_1_data_1_1_cloud_variable_data.html" target="_top" xlink:title="Stores info about cloud variables declared in the CloudOnce Editor">
<polygon fill="none" stroke="black" points="161,-164.5 161,-194.5 292,-194.5 292,-164.5 161,-164.5"/>
<text text-anchor="start" x="169" y="-182.5" font-family="Helvetica,sans-Serif" font-size="10.00">CloudOnce.Internal.Editor.</text>
<text text-anchor="middle" x="226.5" y="-171.5" font-family="Helvetica,sans-Serif" font-size="10.00">Data.CloudVariableData</text>
</a>
</g>
</g>
<!-- Node1&#45;&gt;Node3 -->
<g id="edge2" class="edge">
<title>Node1&#45;&gt;Node3</title>
<path fill="none" stroke="midnightblue" d="M135.13,-165.55C143.65,-166.87 152.31,-168.21 160.73,-169.51"/>
<polygon fill="midnightblue" stroke="midnightblue" points="135.62,-162.09 125.21,-164.02 134.56,-169.01 135.62,-162.09"/>
</g>
<!-- Node4 -->
<g id="node4" class="node">
<title>Node4</title>
<g id="a_node4"><a xlink:href="class_cloud_once_1_1_internal_1_1_editor_1_1_data_1_1_platform_id_data.html" target="_top" xlink:title="Stores achievement/leaderboard IDs for each supported platform as well as an internal ID.">
<polygon fill="none" stroke="black" points="161,-115.5 161,-145.5 292,-145.5 292,-115.5 161,-115.5"/>
<text text-anchor="start" x="169" y="-133.5" font-family="Helvetica,sans-Serif" font-size="10.00">CloudOnce.Internal.Editor.</text>
<text text-anchor="middle" x="226.5" y="-122.5" font-family="Helvetica,sans-Serif" font-size="10.00">Data.PlatformIdData</text>
</a>
</g>
</g>
<!-- Node1&#45;&gt;Node4 -->
<g id="edge3" class="edge">
<title>Node1&#45;&gt;Node4</title>
<path fill="none" stroke="midnightblue" d="M135.13,-143.89C143.65,-142.63 152.31,-141.34 160.73,-140.1"/>
<polygon fill="midnightblue" stroke="midnightblue" points="134.59,-140.43 125.21,-145.36 135.61,-147.35 134.59,-140.43"/>
</g>
<!-- Node5 -->
<g id="node5" class="node">
<title>Node5</title>
<g id="a_node5"><a xlink:href="interface_cloud_once_1_1_internal_1_1_i_json_convertible.html" target="_top" xlink:title=" ">
<polygon fill="none" stroke="#bfbfbf" points="164,-66.5 164,-96.5 289,-96.5 289,-66.5 164,-66.5"/>
<text text-anchor="start" x="172" y="-84.5" font-family="Helvetica,sans-Serif" font-size="10.00">CloudOnce.Internal.IJson</text>
<text text-anchor="middle" x="226.5" y="-73.5" font-family="Helvetica,sans-Serif" font-size="10.00">Convertible</text>
</a>
</g>
</g>
<!-- Node1&#45;&gt;Node5 -->
<g id="edge4" class="edge">
<title>Node1&#45;&gt;Node5</title>
<path fill="none" stroke="midnightblue" d="M101.59,-134.78C119.45,-125.79 141.14,-115.22 161,-106.5 168.7,-103.12 177.01,-99.72 185.02,-96.56"/>
<polygon fill="midnightblue" stroke="midnightblue" points="99.96,-131.68 92.62,-139.33 103.13,-137.93 99.96,-131.68"/>
</g>
<!-- Node6 -->
<g id="node6" class="node">
<title>Node6</title>
<g id="a_node6"><a xlink:href="class_cloud_once_1_1_internal_1_1_currency_value.html" target="_top" xlink:title="Data&#45;class to store currency value.">
<polygon fill="none" stroke="black" points="338,-137.5 338,-167.5 479,-167.5 479,-137.5 338,-137.5"/>
<text text-anchor="start" x="346" y="-155.5" font-family="Helvetica,sans-Serif" font-size="10.00">CloudOnce.Internal.Currency</text>
<text text-anchor="middle" x="408.5" y="-144.5" font-family="Helvetica,sans-Serif" font-size="10.00">Value</text>
</a>
</g>
</g>
<!-- Node5&#45;&gt;Node6 -->
<g id="edge5" class="edge">
<title>Node5&#45;&gt;Node6</title>
<path fill="none" stroke="midnightblue" d="M278.85,-100.43C283.34,-102.38 287.78,-104.41 292,-106.5 308.81,-114.81 310.89,-120.84 328,-128.5 335.37,-131.8 343.32,-134.8 351.24,-137.48"/>
<polygon fill="midnightblue" stroke="midnightblue" points="280.18,-97.2 269.61,-96.57 277.48,-103.66 280.18,-97.2"/>
</g>
<!-- Node7 -->
<g id="node7" class="node">
<title>Node7</title>
<g id="a_node7"><a xlink:href="class_cloud_once_1_1_internal_1_1_syncable_currency.html" target="_top" xlink:title="Handles virtual currencies. Keeps a record of all the earnings and purchases for every device the use...">
<polygon fill="none" stroke="black" points="337,-88.5 337,-118.5 480,-118.5 480,-88.5 337,-88.5"/>
<text text-anchor="start" x="345" y="-106.5" font-family="Helvetica,sans-Serif" font-size="10.00">CloudOnce.Internal.Syncable</text>
<text text-anchor="middle" x="408.5" y="-95.5" font-family="Helvetica,sans-Serif" font-size="10.00">Currency</text>
</a>
</g>
</g>
<!-- Node5&#45;&gt;Node7 -->
<g id="edge6" class="edge">
<title>Node5&#45;&gt;Node7</title>
<path fill="none" stroke="midnightblue" d="M299.43,-90.29C311.78,-91.8 324.6,-93.37 336.91,-94.87"/>
<polygon fill="midnightblue" stroke="midnightblue" points="299.54,-86.78 289.19,-89.04 298.7,-93.73 299.54,-86.78"/>
</g>
<!-- Node8 -->
<g id="node8" class="node">
<title>Node8</title>
<g id="a_node8"><a xlink:href="class_cloud_once_1_1_internal_1_1_syncable_item.html" target="_top" xlink:title="Data&#45;class for regular cloud preferences. Takes care of serialization and deserialization of the data...">
<polygon fill="none" stroke="black" points="328,-50 328,-69 489,-69 489,-50 328,-50"/>
<text text-anchor="middle" x="408.5" y="-57" font-family="Helvetica,sans-Serif" font-size="10.00">CloudOnce.Internal.SyncableItem</text>
</a>
</g>
</g>
<!-- Node5&#45;&gt;Node8 -->
<g id="edge7" class="edge">
<title>Node5&#45;&gt;Node8</title>
<path fill="none" stroke="midnightblue" d="M299.42,-72.71C309.37,-71.49 319.62,-70.24 329.66,-69.01"/>
<polygon fill="midnightblue" stroke="midnightblue" points="298.7,-69.27 289.19,-73.96 299.54,-76.22 298.7,-69.27"/>
</g>
<!-- Node9 -->
<g id="node9" class="node">
<title>Node9</title>
<g id="a_node9"><a xlink:href="class_cloud_once_1_1_internal_1_1_syncable_item_meta_data.html" target="_top" xlink:title="Holds data about a SyncableItem.">
<polygon fill="none" stroke="black" points="337,-0.5 337,-30.5 480,-30.5 480,-0.5 337,-0.5"/>
<text text-anchor="start" x="345" y="-18.5" font-family="Helvetica,sans-Serif" font-size="10.00">CloudOnce.Internal.Syncable</text>
<text text-anchor="middle" x="408.5" y="-7.5" font-family="Helvetica,sans-Serif" font-size="10.00">ItemMetaData</text>
</a>
</g>
</g>
<!-- Node5&#45;&gt;Node9 -->
<g id="edge8" class="edge">
<title>Node5&#45;&gt;Node9</title>
<path fill="none" stroke="midnightblue" d="M271.91,-62.46C289.28,-55.26 309.45,-47.19 328,-40.5 337.39,-37.11 347.5,-33.74 357.25,-30.61"/>
<polygon fill="midnightblue" stroke="midnightblue" points="270.45,-59.28 262.57,-66.36 273.15,-65.74 270.45,-59.28"/>
</g>
</g>
</svg>
