<?xml version="1.0" encoding="UTF-8" standalone="no"?>
<!DOCTYPE svg PUBLIC "-//W3C//DTD SVG 1.1//EN"
 "http://www.w3.org/Graphics/SVG/1.1/DTD/svg11.dtd">
<!-- Generated by graphviz version 3.0.0 (20220226.1711)
 -->
<!-- Title: CloudOnce.Internal.IJsonDeserializable Pages: 1 -->
<svg width="491pt" height="176pt"
 viewBox="0.00 0.00 491.00 176.00" xmlns="http://www.w3.org/2000/svg" xmlns:xlink="http://www.w3.org/1999/xlink">
<g id="graph0" class="graph" transform="scale(1 1) rotate(0) translate(4 172)">
<title>CloudOnce.Internal.IJsonDeserializable</title>
<!-- Node1 -->
<g id="node1" class="node">
<title>Node1</title>
<g id="a_node1"><a xlink:title=" ">
<polygon fill="#bfbfbf" stroke="black" points="0,-66.5 0,-96.5 125,-96.5 125,-66.5 0,-66.5"/>
<text text-anchor="start" x="8" y="-84.5" font-family="Helvetica,sans-Serif" font-size="10.00">CloudOnce.Internal.IJson</text>
<text text-anchor="middle" x="62.5" y="-73.5" font-family="Helvetica,sans-Serif" font-size="10.00">Deserializable</text>
</a>
</g>
</g>
<!-- Node2 -->
<g id="node2" class="node">
<title>Node2</title>
<g id="a_node2"><a xlink:href="interface_cloud_once_1_1_internal_1_1_i_json_convertible.html" target="_top" xlink:title=" ">
<polygon fill="none" stroke="#bfbfbf" points="161,-66.5 161,-96.5 286,-96.5 286,-66.5 161,-66.5"/>
<text text-anchor="start" x="169" y="-84.5" font-family="Helvetica,sans-Serif" font-size="10.00">CloudOnce.Internal.IJson</text>
<text text-anchor="middle" x="223.5" y="-73.5" font-family="Helvetica,sans-Serif" font-size="10.00">Convertible</text>
</a>
</g>
</g>
<!-- Node1&#45;&gt;Node2 -->
<g id="edge1" class="edge">
<title>Node1&#45;&gt;Node2</title>
<path fill="none" stroke="midnightblue" d="M135.59,-81.5C143.99,-81.5 152.5,-81.5 160.74,-81.5"/>
<polygon fill="midnightblue" stroke="midnightblue" points="135.43,-78 125.43,-81.5 135.43,-85 135.43,-78"/>
</g>
<!-- Node3 -->
<g id="node3" class="node">
<title>Node3</title>
<g id="a_node3"><a xlink:href="class_cloud_once_1_1_internal_1_1_currency_value.html" target="_top" xlink:title="Data&#45;class to store currency value.">
<polygon fill="none" stroke="black" points="332,-137.5 332,-167.5 473,-167.5 473,-137.5 332,-137.5"/>
<text text-anchor="start" x="340" y="-155.5" font-family="Helvetica,sans-Serif" font-size="10.00">CloudOnce.Internal.Currency</text>
<text text-anchor="middle" x="402.5" y="-144.5" font-family="Helvetica,sans-Serif" font-size="10.00">Value</text>
</a>
</g>
</g>
<!-- Node2&#45;&gt;Node3 -->
<g id="edge2" class="edge">
<title>Node2&#45;&gt;Node3</title>
<path fill="none" stroke="midnightblue" d="M261.95,-101.24C279.83,-110.24 301.72,-120.61 322,-128.5 330.2,-131.69 339,-134.72 347.66,-137.49"/>
<polygon fill="midnightblue" stroke="midnightblue" points="263.49,-98.1 252.99,-96.69 260.31,-104.34 263.49,-98.1"/>
</g>
<!-- Node4 -->
<g id="node4" class="node">
<title>Node4</title>
<g id="a_node4"><a xlink:href="class_cloud_once_1_1_internal_1_1_syncable_currency.html" target="_top" xlink:title="Handles virtual currencies. Keeps a record of all the earnings and purchases for every device the use...">
<polygon fill="none" stroke="black" points="331,-88.5 331,-118.5 474,-118.5 474,-88.5 331,-88.5"/>
<text text-anchor="start" x="339" y="-106.5" font-family="Helvetica,sans-Serif" font-size="10.00">CloudOnce.Internal.Syncable</text>
<text text-anchor="middle" x="402.5" y="-95.5" font-family="Helvetica,sans-Serif" font-size="10.00">Currency</text>
</a>
</g>
</g>
<!-- Node2&#45;&gt;Node4 -->
<g id="edge3" class="edge">
<title>Node2&#45;&gt;Node4</title>
<path fill="none" stroke="midnightblue" d="M296.65,-90.47C307.94,-91.87 319.59,-93.32 330.85,-94.72"/>
<polygon fill="midnightblue" stroke="midnightblue" points="296.76,-86.95 286.41,-89.19 295.9,-93.9 296.76,-86.95"/>
</g>
<!-- Node5 -->
<g id="node5" class="node">
<title>Node5</title>
<g id="a_node5"><a xlink:href="class_cloud_once_1_1_internal_1_1_syncable_item.html" target="_top" xlink:title="Data&#45;class for regular cloud preferences. Takes care of serialization and deserialization of the data...">
<polygon fill="none" stroke="black" points="322,-50 322,-69 483,-69 483,-50 322,-50"/>
<text text-anchor="middle" x="402.5" y="-57" font-family="Helvetica,sans-Serif" font-size="10.00">CloudOnce.Internal.SyncableItem</text>
</a>
</g>
</g>
<!-- Node2&#45;&gt;Node5 -->
<g id="edge4" class="edge">
<title>Node2&#45;&gt;Node5</title>
<path fill="none" stroke="midnightblue" d="M296.48,-72.55C305.88,-71.39 315.53,-70.19 325,-69.01"/>
<polygon fill="midnightblue" stroke="midnightblue" points="295.9,-69.1 286.41,-73.81 296.76,-76.05 295.9,-69.1"/>
</g>
<!-- Node6 -->
<g id="node6" class="node">
<title>Node6</title>
<g id="a_node6"><a xlink:href="class_cloud_once_1_1_internal_1_1_syncable_item_meta_data.html" target="_top" xlink:title="Holds data about a SyncableItem.">
<polygon fill="none" stroke="black" points="331,-0.5 331,-30.5 474,-30.5 474,-0.5 331,-0.5"/>
<text text-anchor="start" x="339" y="-18.5" font-family="Helvetica,sans-Serif" font-size="10.00">CloudOnce.Internal.Syncable</text>
<text text-anchor="middle" x="402.5" y="-7.5" font-family="Helvetica,sans-Serif" font-size="10.00">ItemMetaData</text>
</a>
</g>
</g>
<!-- Node2&#45;&gt;Node6 -->
<g id="edge5" class="edge">
<title>Node2&#45;&gt;Node6</title>
<path fill="none" stroke="midnightblue" d="M267.6,-62.36C284.43,-55.15 303.98,-47.1 322,-40.5 331.37,-37.06 341.47,-33.66 351.22,-30.53"/>
<polygon fill="midnightblue" stroke="midnightblue" points="265.83,-59.31 258.03,-66.49 268.6,-65.73 265.83,-59.31"/>
</g>
</g>
</svg>
